<svg width="143" height="148" viewBox="0 0 143 148" fill="none" xmlns="http://www.w3.org/2000/svg">
<g clip-path="url(#clip0_234_61)">
<path d="M0.235116 101.655C0.195927 101.067 0.156738 100.598 0.156738 100.128C0.156738 70.7707 0.156738 41.4134 0.156738 12.0952C0.156738 6.61518 2.78239 2.42687 7.36748 0.782862C8.62152 0.313145 10.0323 0.0391431 11.3647 0.0391431C51.4549 0 91.5059 0 131.557 0C137.905 0 142.726 4.69717 142.961 10.9992C143 11.5864 143 12.1735 143 12.7606C143 41.7265 143 70.6924 143 99.6192C143 100.245 143 100.872 143 101.615C95.3856 101.655 47.8887 101.655 0.235116 101.655ZM71.3236 89.716C89.5464 89.716 107.769 89.716 125.992 89.716C128.696 89.716 129.401 89.0505 129.401 86.3496C129.401 63.2552 129.401 40.1608 129.401 17.1055C129.401 14.2872 128.735 13.6218 125.953 13.6218C89.664 13.6218 53.3752 13.6218 17.0863 13.6218C14.3039 13.6218 13.6377 14.2872 13.6377 17.0664C13.6377 40.1217 13.6377 63.1378 13.6377 86.1931C13.6377 89.0897 14.2647 89.716 17.1647 89.716C35.1915 89.716 53.2576 89.716 71.3236 89.716Z" fill="white"/>
<path d="M0.0783084 106.195C47.6143 106.195 95.1112 106.195 142.569 106.195C143.078 110.501 140.061 115.668 135.554 117.625C133.595 118.486 131.322 118.995 129.205 119.034C90.0167 119.112 50.8278 119.112 11.6782 119.073C4.23232 119.073 -0.744657 113.554 0.0783084 106.195Z" fill="white"/>
<path d="M56.667 124.005C66.5818 124.005 76.3006 124.005 86.2546 124.005C86.2546 127.724 86.2546 131.443 86.2546 135.279C88.4491 135.279 90.4086 135.279 92.3288 135.279C96.9531 135.318 99.6963 138.097 99.6963 142.716C99.6963 143.694 99.7355 144.673 99.6963 145.652C99.618 147.139 98.8734 147.883 97.4234 147.961C97.0707 148 96.7572 147.961 96.4045 147.961C79.7492 147.961 63.094 147.961 46.4779 147.961C43.6563 147.961 43.0293 147.335 43.0293 144.516C43.0293 143.773 43.0293 143.029 43.0293 142.324C43.1861 138.41 46.1644 135.396 50.0833 135.318C52.2387 135.279 54.3549 135.318 56.7062 135.318C56.667 131.482 56.667 127.763 56.667 124.005Z" fill="white"/>
<path d="M124.62 85.0187C89.1545 85.0187 53.767 85.0187 18.3403 85.0187C18.3403 62.7462 18.3403 40.5913 18.3403 18.3188C53.8062 18.3188 89.1937 18.3188 124.62 18.3188C124.62 40.5913 124.62 62.7854 124.62 85.0187ZM79.0438 70.2617C86.8816 70.2617 94.7193 70.2617 102.557 70.2617C104.673 70.2617 105.104 69.9486 105.731 67.9523C108.906 57.6185 112.041 47.3239 115.176 36.9901C115.96 34.3675 114.98 33.0758 112.198 33.0758C96.6396 33.0758 81.0424 33.0758 65.4845 33.0758C63.2507 33.0758 62.7805 33.3889 62.1534 35.5418C59.0183 45.8756 55.844 56.1702 52.7089 66.504C51.886 69.1657 52.7089 70.2226 55.5305 70.2617C63.4075 70.2617 71.206 70.2617 79.0438 70.2617ZM39.1496 32.8409C36.2104 32.8409 33.2713 32.8409 30.3321 32.8409C28.647 32.8409 27.5105 33.8195 27.4713 35.1504C27.4713 36.5204 28.5294 37.4207 30.2929 37.4598C36.2104 37.499 42.1279 37.499 48.0455 37.4598C49.8873 37.4598 50.8671 36.5987 50.8279 35.1895C50.8279 33.7412 49.809 32.8801 48.0455 32.8801C45.1063 32.8409 42.1279 32.8409 39.1496 32.8409ZM37.2293 53.8608C39.6199 53.8608 42.0104 53.8999 44.4401 53.8608C46.3212 53.8216 47.1833 53.0388 47.1441 51.5122C47.1049 50.103 46.1644 49.281 44.4793 49.281C39.7766 49.281 35.074 49.281 30.3713 49.281C28.6862 49.281 27.5497 50.2596 27.5105 51.5905C27.5105 52.9605 28.5686 53.8608 30.3321 53.8608C32.6443 53.8608 34.9564 53.8608 37.2293 53.8608ZM33.624 65.7211C32.4091 65.7211 31.1943 65.682 29.9794 65.7211C28.6078 65.7603 27.5497 66.7388 27.5105 67.9523C27.4713 69.1266 28.5294 70.2226 29.8618 70.2617C32.4091 70.3009 34.9564 70.3009 37.4645 70.2617C38.8753 70.2226 39.7766 69.2049 39.7374 67.9131C39.6982 66.6997 38.7969 65.7994 37.4253 65.7603C36.1712 65.682 34.9172 65.7211 33.624 65.7211Z" fill="white"/>
<path d="M108.866 37.4992C109.376 37.5383 109.729 38.0472 109.611 38.556C108.553 42.0398 107.534 45.3669 106.515 48.6941C104.948 53.9393 103.341 59.1453 101.773 64.3905C101.538 65.2125 101.303 65.7213 100.245 65.7213C86.4896 65.6822 72.7344 65.6822 58.9791 65.6822C58.4696 65.6822 58.0777 65.1733 58.1953 64.6645C58.2345 64.5471 58.2737 64.4296 58.3129 64.3122C60.8993 55.8181 63.4858 47.285 66.0331 38.7909C66.3074 37.8906 66.6209 37.4209 67.7182 37.4209C81.3167 37.46 94.9544 37.46 108.553 37.46C108.592 37.46 108.71 37.46 108.866 37.4992ZM82.0221 60.1239C86.4113 60.1239 90.8396 60.1239 95.2287 60.1239C96.7179 60.1239 97.5409 59.5759 97.972 58.0884C99.1476 54.0958 100.402 50.1424 101.656 46.1889C102.322 44.0361 101.46 42.7835 99.1868 42.7835C90.291 42.7444 81.3559 42.7835 72.46 42.7835C70.9709 42.7835 70.1087 43.4098 69.6776 44.8581C68.5412 48.6941 67.3263 52.491 66.1506 56.327C65.4061 58.793 66.3858 60.1239 68.933 60.1239C73.3222 60.163 77.6722 60.1239 82.0221 60.1239Z" fill="white"/>
</g>
<defs>
<clipPath id="clip0_234_61">
<rect width="143" height="148" fill="white"/>
</clipPath>
</defs>
</svg>
