<svg width="148" height="148" viewBox="0 0 148 148" fill="none" xmlns="http://www.w3.org/2000/svg">
<g clip-path="url(#clip0_198_318)">
<path d="M69.7448 113.683C68.4498 113.683 67.5248 113.683 66.5998 113.683C46.481 113.683 26.3623 113.683 6.24353 113.683C5.17978 113.683 4.06978 113.636 3.05228 113.359C0.971029 112.758 -0.231471 110.723 0.0460287 108.734C0.323529 106.653 1.94228 105.173 4.11603 105.034C5.13353 104.988 6.10478 105.034 7.12228 105.034C8.04728 105.034 8.97228 105.034 10.036 105.034C10.036 72.9363 10.036 41.0238 10.036 8.83375C8.50978 8.83375 6.98353 8.83375 5.45728 8.83375C2.17353 8.74125 0.0460287 7.03 -0.000221354 4.39375C-0.0464714 1.71125 2.03478 0 5.36478 0C34.1785 0 62.9923 0 91.8523 0C108.734 0 125.615 0 142.496 0.04625C143.699 0.04625 145.04 0.23125 146.011 0.78625C147.676 1.7575 148.37 3.4225 147.861 5.365C147.306 7.4925 145.78 8.55625 143.652 8.74125C141.802 8.88 139.952 8.7875 137.964 8.7875C137.964 40.885 137.964 72.7975 137.964 105.034C139.814 105.034 141.617 104.988 143.467 105.034C146.057 105.08 147.815 106.699 148 109.058C148.185 111.416 146.381 113.405 143.791 113.683C143.051 113.775 142.265 113.729 141.479 113.729C121.452 113.729 101.426 113.729 81.3535 113.729C80.4285 113.729 79.5035 113.729 78.2548 113.729C78.2548 116.55 78.116 119.233 78.3473 121.869C78.3935 122.47 79.4573 123.164 80.1973 123.58C85.4235 126.494 88.0135 132.368 86.626 138.149C85.2385 143.791 80.2435 147.861 74.4623 148.046C68.496 148.231 63.0848 144.254 61.5123 138.565C59.8935 132.784 62.391 126.586 67.7098 123.765C69.3285 122.933 69.9298 122.008 69.791 120.25C69.606 118.123 69.7448 116.041 69.7448 113.683ZM110.214 49.3025C110.214 53.5575 110.167 57.3038 110.214 61.0963C110.26 64.1025 112.11 65.9988 114.654 65.9525C117.197 65.9063 118.862 63.9638 118.862 60.9113C118.862 54.9913 118.816 49.0713 118.862 43.105C118.862 40.7463 117.891 39.1738 115.764 38.2025C102.675 32.0975 89.586 25.9925 76.4973 19.8875C74.786 19.055 73.1673 19.055 71.4098 19.8875C58.4135 25.9925 45.3248 32.0975 32.1898 38.2025C30.3398 39.035 29.1373 40.2838 29.091 42.365C29.091 44.4925 30.2935 45.7413 32.1435 46.5738C35.8898 48.3313 39.636 50.1813 43.4285 51.8C45.0935 52.4938 45.5098 53.4188 45.5098 55.0838C45.4173 63.0388 45.4635 70.9475 45.4635 78.9025C45.4635 82.1863 46.296 83.4813 48.9785 84.4063C65.2585 89.91 81.5385 90.1413 97.911 84.73C101.842 83.435 102.444 82.51 102.49 78.3938C102.49 70.5313 102.49 62.6688 102.536 54.8063C102.536 53.9738 102.814 52.7713 103.415 52.4475C105.45 51.2913 107.67 50.4588 110.214 49.3025ZM78.2548 135.096C78.301 132.645 76.5435 130.795 74.1848 130.703C71.6873 130.61 69.791 132.46 69.791 135.004C69.791 137.455 71.5485 139.213 73.9535 139.259C76.4048 139.259 78.2085 137.548 78.2548 135.096Z" fill="white"/>
<path d="M43.9375 42.3188C53.6962 37.7863 63.2237 33.3001 72.7975 28.9063C73.445 28.6288 74.4625 28.5363 75.11 28.8601C84.73 33.3001 94.35 37.7863 104.34 42.4576C100.917 44.0301 97.8187 45.5101 94.72 46.9438C88.3838 49.9038 82.0475 52.9101 75.665 55.7776C74.8788 56.1476 73.6762 56.3326 72.9362 55.9626C63.5012 51.6613 54.1125 47.2676 44.6775 42.8738C44.4925 42.7813 44.3075 42.5963 43.9375 42.3188Z" fill="white"/>
<path d="M54.2049 56.8875C57.2112 58.275 59.9399 59.4775 62.6224 60.7262C65.3974 62.0212 68.2187 63.27 70.9474 64.6575C73.0287 65.7675 74.9249 65.7212 77.0524 64.6575C81.8162 62.2987 86.6262 60.1249 91.4362 57.9049C92.1299 57.5812 92.8237 57.35 93.7949 56.9337C93.7949 63.455 93.8412 69.6525 93.7487 75.85C93.7487 76.3587 92.9624 77.0987 92.4074 77.2837C80.1049 80.7987 67.8024 80.7987 55.5462 77.2837C54.9912 77.145 54.2512 76.3587 54.2512 75.85C54.1587 69.6987 54.2049 63.5012 54.2049 56.8875Z" fill="white"/>
</g>
<defs>
<clipPath id="clip0_198_318">
<rect width="148" height="148" fill="white"/>
</clipPath>
</defs>
</svg>
