<svg width="154" height="155" viewBox="0 0 154 155" fill="none" xmlns="http://www.w3.org/2000/svg">
<path d="M33.3511 35.008C32.7243 32.2595 32.7725 29.704 34.5566 27.2448C34.8459 26.8109 34.6048 25.8947 34.4119 25.2679C34.1708 24.4482 33.6887 23.7249 33.11 22.5677C35.3763 22.5677 37.2568 22.5677 39.523 22.5677C38.9444 23.7249 38.4623 24.4482 38.2212 25.2679C38.0283 25.8947 37.8836 26.6662 38.0283 27.2448C38.6069 29.3664 39.282 31.4398 39.8124 33.1757C40.7285 30.9576 42.0304 28.1128 42.9465 25.1715C43.6698 22.7606 44.9717 22.0855 47.4308 22.1337C54.8564 22.3748 59.3407 26.5216 59.7264 33.8025C59.8229 35.3937 59.7747 37.0331 59.7747 38.6243C59.7747 39.4922 59.7747 40.3602 59.7747 41.8549C62.9571 39.878 65.8019 38.0939 68.6468 36.4063C71.2506 34.8633 73.7579 35.2008 75.3009 37.2742C76.9403 39.444 76.6028 42.2407 74.1919 43.7837C68.695 47.3518 63.1017 50.8717 57.412 54.1988C54.0849 56.1275 50.7097 53.9577 50.6132 50.0038C50.4686 45.0855 50.565 40.2155 50.4203 35.2973C50.3721 34.3329 49.7935 33.3685 49.5042 32.4042C49.1667 33.3685 48.4916 34.2847 48.4916 35.249C48.4916 56.6097 48.5398 78.0185 48.6845 99.3791C48.6845 101.501 48.2505 102.658 46.0325 103.381C43.4769 104.201 41.4036 106.949 38.2694 104.683C39.8606 101.211 41.2589 97.3058 39.5713 93.5447C35.9549 85.4923 38.0283 77.1024 37.4979 68.9053C37.4015 67.2659 37.1121 66.3979 35.087 67.2177C35.087 73.1003 35.087 79.0311 35.087 84.8173C31.4224 83.4672 27.9025 82.2135 23.7075 80.6705C23.7075 65.0961 23.7075 48.7983 23.7075 32.5488C23.3218 32.5006 22.9842 32.4524 22.5985 32.4042C22.4056 33.3685 22.0681 34.2847 22.0681 35.249C21.9717 45.857 21.8752 56.465 21.8752 67.073C21.8752 69.1464 21.1037 70.9787 19.2232 71.4608C17.7285 71.8466 15.7515 71.5091 14.3532 70.7376C13.437 70.2554 12.762 68.4713 12.762 67.2659C12.6656 56.0311 12.6173 44.748 12.8584 33.5132C13.0031 25.943 18.6446 21.4105 27.6132 22.2784C28.1436 22.3266 28.8186 23.1945 29.0597 23.8214C30.5063 27.5342 31.9046 31.2469 33.3511 35.008Z" fill="white"/>
<path d="M126.943 154.203C123.567 154.203 120.53 154.203 117.395 154.203C116.769 150.105 117.829 145.91 116.142 141.956C114.792 145.91 115.563 149.96 115.129 154.107C106.595 154.107 98.0599 154.107 89.236 154.107C89.236 150.828 89.2842 147.549 89.1878 144.318C89.1878 143.595 88.6092 142.92 88.2717 142.197C87.9824 142.92 87.5002 143.643 87.452 144.415C87.3555 147.597 87.4037 150.828 87.4037 154.155C80.7496 154.155 74.3366 154.155 67.5861 154.155C67.5861 150.876 67.6343 147.694 67.5379 144.511C67.4897 143.595 67.0075 142.727 66.7182 141.859C66.3806 142.727 65.802 143.595 65.7538 144.463C65.6574 147.646 65.7056 150.876 65.7056 154.203C56.9781 154.203 48.3953 154.203 39.4267 154.203C39.4267 150.056 39.4267 146.006 39.4267 141.908C39.1374 141.908 38.7999 141.859 38.5106 141.859C37.2569 143.643 38.0284 145.813 37.8837 147.79C37.7391 149.864 37.8355 151.937 37.8355 154.203C34.5567 154.203 31.4707 154.203 27.8544 154.203C28.0955 149.381 27.8544 144.463 28.6741 139.738C29.4938 134.916 33.8816 131.444 38.8481 131.3C47.9131 131.058 56.9781 130.962 66.0431 131.203C72.5526 131.396 76.3136 135.205 77.4226 141.715C79.7853 134.048 83.5463 131.3 91.6951 131.3C99.169 131.3 106.643 131.3 114.117 131.3C122.121 131.348 126.846 136.073 126.894 143.981C126.991 147.26 126.943 150.635 126.943 154.203Z" fill="white"/>
<path d="M136.924 59.6957C136.924 43.6873 136.924 27.7753 136.924 11.8151C114.551 11.8151 92.322 11.8151 69.7077 11.8151C69.7077 13.1652 69.7077 14.5153 69.7077 15.8172C69.7077 20.0604 69.6594 24.3518 69.7559 28.595C69.8041 30.138 69.4666 31.1024 67.8754 31.681C66.3324 32.2596 64.9341 33.2722 63.15 34.2848C63.0536 33.4168 62.9571 32.7418 62.9571 32.1149C62.9571 24.7858 62.9571 17.5048 62.9571 10.1757C62.9571 6.12537 63.9697 5.11279 68.1165 5.11279C91.6469 5.11279 115.177 5.11279 138.708 5.11279C142.903 5.11279 143.819 6.02894 143.819 10.1757C143.819 27.3896 143.819 44.5552 143.819 61.7691C143.819 65.6265 142.855 66.5909 138.997 66.5909C115.322 66.5909 91.5987 66.5909 67.9236 66.5909C64.0661 66.5909 63.3429 65.5301 62.9089 61.8173C62.4267 57.767 63.6804 55.0668 67.4896 53.572C68.1165 53.3309 68.6951 52.9452 69.7077 52.4148C69.7077 55.0185 69.7077 57.2848 69.7077 59.7439C92.1773 59.6957 114.454 59.6957 136.924 59.6957Z" fill="white"/>
<path d="M9.57964 133.566C6.25259 133.566 3.11841 133.566 0.17711 133.566C0.17711 128.744 -0.305071 123.97 0.321764 119.39C0.948599 114.471 5.4811 110.903 11.0262 110.71C19.9948 110.421 28.9633 110.614 38.3176 110.614C36.196 115.773 36.2925 120.74 38.9927 125.658C33.544 126.381 29.1562 128.551 26.022 132.939C25.7327 133.325 25.1059 133.662 24.6719 133.662C20.4287 133.71 16.1855 133.71 11.7012 133.71C11.7012 130.528 11.7012 127.587 11.7012 124.645C11.7012 124.019 11.8459 123.344 11.653 122.717C11.5084 122.186 10.978 121.801 10.6404 121.367C10.3029 121.849 9.7243 122.283 9.7243 122.765C9.62786 125.754 9.67608 128.696 9.62786 131.685C9.62786 132.168 9.57964 132.698 9.57964 133.566Z" fill="white"/>
<path d="M141.89 133.662C137.888 133.662 134.127 133.662 130.414 133.614C129.98 133.614 129.45 133.325 129.209 132.987C126.026 128.599 121.639 126.478 116.19 125.754C118.697 120.836 118.987 115.918 116.624 110.71C117.733 110.71 118.504 110.71 119.324 110.71C126.557 110.71 133.79 110.662 141.022 110.71C149.075 110.759 153.655 115.339 153.848 123.392C153.897 126.671 153.848 129.949 153.848 133.421C150.569 133.421 147.435 133.421 143.915 133.421C143.915 130.142 143.964 126.863 143.867 123.585C143.867 122.861 143.289 122.186 142.951 121.463C142.613 122.138 141.987 122.813 141.938 123.536C141.794 126.863 141.89 130.142 141.89 133.662Z" fill="white"/>
<path d="M66.4288 110.566C74.0473 110.566 81.28 110.566 88.7538 110.566C86.7769 115.629 86.584 120.595 89.0431 125.176C85.1857 126.815 81.3765 128.406 77.2297 130.19C74.433 127.587 70.6238 125.754 65.7056 125.61C68.3093 120.691 68.4058 115.773 66.4288 110.566Z" fill="white"/>
<path d="M112.959 117.847C112.911 123.44 108.186 128.117 102.641 128.117C97.0473 128.069 92.4183 123.392 92.4183 117.799C92.4183 112.109 97.1437 107.432 102.882 107.48C108.475 107.528 113.007 112.205 112.959 117.847Z" fill="white"/>
<path d="M42.4644 117.364C42.5126 111.675 47.0933 107.142 52.7348 107.239C58.521 107.287 62.9089 111.916 62.8124 117.798C62.716 123.488 58.0871 127.924 52.3973 127.779C46.7558 127.635 42.4162 123.102 42.4644 117.364Z" fill="white"/>
<path d="M139.094 97.161C139.142 102.851 134.609 107.431 128.968 107.431C123.423 107.431 118.89 102.899 118.842 97.3539C118.794 91.8088 123.278 87.2281 128.823 87.1798C134.561 87.1316 139.045 91.4713 139.094 97.161Z" fill="white"/>
<path d="M14.4497 97.2093C14.4497 91.5678 18.7893 87.0835 24.4309 87.0353C30.1206 86.9871 34.7495 91.616 34.7013 97.2575C34.6531 102.803 30.0242 107.383 24.4791 107.335C18.934 107.335 14.4979 102.803 14.4497 97.2093Z" fill="white"/>
<path d="M79.4477 87.0352C85.041 87.0352 89.5253 91.4712 89.6217 97.0645C89.7181 102.61 84.9928 107.383 79.4477 107.335C73.8544 107.335 69.129 102.513 69.2254 97.0163C69.3219 91.5194 73.9026 87.0352 79.4477 87.0352Z" fill="white"/>
<path d="M26.6006 9.50055C26.697 4.24477 31.1813 -0.0948593 36.4371 0.00157688C41.7411 0.0980131 45.9843 4.53408 45.8879 9.83807C45.7432 14.9974 41.3554 19.2888 36.196 19.2406C30.9402 19.1924 26.5524 14.7563 26.6006 9.50055Z" fill="white"/>
<path d="M80.2674 36.0204C79.0619 34.6221 78.0493 33.4649 76.8921 32.1148C80.6531 29.1735 84.3177 26.1839 88.0305 23.3391C89.2359 22.4229 90.6343 22.3265 91.695 23.6284C92.8041 25.0267 92.4665 26.3768 91.1647 27.3894C87.6447 30.2343 84.0284 33.0309 80.2674 36.0204Z" fill="white"/>
</svg>
