<svg width="177" height="131" viewBox="0 0 177 131" fill="none" xmlns="http://www.w3.org/2000/svg">
<g clip-path="url(#clip0_228_17)">
<path d="M93.8942 124.709C93.8942 113.625 93.8942 102.831 93.8942 91.9792C93.8942 87.4527 94.4165 86.9305 98.8269 86.9305C103.005 86.9305 107.125 86.9305 111.304 86.9305C114.495 86.9305 115.424 87.917 115.424 91.1087C115.424 101.148 115.424 111.245 115.424 121.285C115.424 122.329 115.424 123.374 115.424 124.709C117.049 124.709 118.499 124.709 120.298 124.709C120.298 120.182 120.298 115.772 120.298 111.362C120.298 108.054 120.298 104.804 120.298 101.496C120.298 99.0009 121.459 97.7823 124.07 97.8403C128.713 97.8983 133.355 97.8983 137.998 97.8403C140.725 97.7823 141.77 99.175 141.77 101.786C141.712 108.576 141.77 115.308 141.77 122.097C141.77 122.968 141.886 123.78 141.944 124.825C143.511 124.825 144.903 124.825 146.702 124.825C146.702 123.722 146.702 122.678 146.702 121.691C146.702 107.299 146.702 92.9076 146.702 78.4579C146.702 74.4538 147.457 73.6414 151.345 73.6414C155.407 73.6414 159.469 73.6414 163.531 73.6414C167.361 73.6414 168.174 74.3958 168.174 78.1678C168.174 92.5595 168.174 106.951 168.174 121.401C168.174 122.445 168.174 123.49 168.174 124.999C169.973 124.999 171.714 124.651 173.165 125.115C174.383 125.521 175.254 126.856 176.298 127.784C175.312 128.771 174.383 129.873 173.223 130.686C172.7 131.034 171.714 130.802 170.959 130.802C135.56 130.802 100.22 130.802 64.8207 130.802C62.6155 130.802 59.5979 131.44 59.4818 127.958C59.3658 124.418 62.3253 125.057 64.5886 124.999C65.343 124.941 66.0974 124.941 67.316 124.883C67.316 120.182 67.316 115.598 67.316 111.013C67.316 105.733 67.6062 105.442 72.887 105.442C76.8331 105.442 80.8372 105.442 84.7833 105.442C88.1491 105.442 88.7295 105.965 88.7295 109.272C88.7875 114.379 88.7295 119.486 88.7295 124.709C90.6445 124.709 92.2113 124.709 93.8942 124.709Z" fill="white"/>
<path d="M17.7576 92.3853C24.4892 85.6537 30.8145 79.3283 37.314 72.8288C44.9741 78.2257 53.3886 79.8506 62.3254 76.1366C71.2622 72.4806 76.1948 65.4589 77.8777 55.8838C87.0466 55.8838 96.0994 55.8838 105.675 55.8838C104.92 60.2361 104.166 64.4723 103.353 69.1148C106.487 67.606 109.447 66.1552 112.406 64.7045C116.352 62.7314 116.526 62.7894 119.602 65.9231C121.517 67.8381 123.432 69.6951 125.463 71.7262C134.98 66.2133 144.497 60.7584 154.479 55.0133C153.318 54.549 152.331 54.433 151.983 53.9107C151.287 52.9242 150.358 51.4734 150.591 50.6029C150.881 49.6744 152.622 48.5138 153.55 48.6299C156.858 49.2102 160.166 50.0807 163.299 51.2993C164.228 51.6475 165.156 53.6206 165.04 54.6651C164.576 57.6827 163.822 60.7584 162.719 63.6019C162.313 64.6464 160.456 65.633 159.237 65.633C158.541 65.633 157.728 63.6599 157.206 62.4413C156.974 61.919 157.322 61.1646 157.438 60.062C153.202 62.4993 149.198 64.7625 145.252 67.0257C139.391 70.3915 133.529 73.6993 127.726 77.2392C125.289 78.6899 123.548 78.4578 121.633 76.3687C119.66 74.1635 117.397 72.1324 115.076 69.8692C110.201 72.2485 105.21 74.7438 99.7554 77.4713C100.858 74.7438 101.728 72.5387 102.831 69.7532C101.67 70.2174 101.032 70.3915 100.394 70.6817C91.3409 75.2081 82.288 79.7345 73.1772 84.2609C71.3782 85.1894 69.4632 86.1759 70.6238 88.6132C71.8425 91.1086 73.8736 90.4122 75.8466 89.4257C83.3326 85.6537 90.8766 81.9397 98.4207 78.1677C96.9119 86.4661 80.7792 99.9873 67.8383 103.469C49.3264 108.518 32.6135 104.746 17.7576 92.3853Z" fill="white"/>
<path d="M13.2891 87.5688C0.87051 74.6279 -4.35228 52.2279 4.17828 32.2653C13.2891 10.9099 33.9482 0.464281 49.6746 0.40625C49.7326 1.04459 49.9067 1.68293 49.9067 2.32127C49.9067 10.0394 49.9067 17.7575 49.9067 25.5337C49.9067 26.8104 49.9647 27.8549 48.2238 28.2611C29.5378 32.6135 21.9938 51.5316 32.4974 67.6642C32.6715 67.8963 32.7295 68.1865 32.7876 68.3025C26.2301 74.744 19.7306 81.1854 13.2891 87.5688Z" fill="white"/>
<path d="M105.442 49.7905C96.1573 49.7905 87.1625 49.7905 77.9356 49.7905C76.717 43.1169 74.0475 37.1978 68.4765 33.3677C65.2268 31.1045 61.2807 29.9439 57.6828 28.203C56.9284 27.8548 55.8258 27.1584 55.8258 26.6361C55.6517 17.9315 55.7097 9.28485 55.7097 0.580197C75.9625 -0.0581442 103.701 18.4537 105.442 49.7905Z" fill="white"/>
<path d="M113.567 8.41441C113.567 7.07969 113.567 5.68695 113.567 4.35224C113.625 0.754316 114.263 0.0579436 117.745 -8.73506e-05C120.821 -0.0581184 123.896 -8.73506e-05 126.972 -8.73506e-05C129.293 -8.73506e-05 130.512 1.16053 130.512 3.59783C130.454 6.84757 130.454 10.1553 130.512 13.4051C130.57 15.9584 129.351 17.1771 126.856 17.1771C123.664 17.1771 120.472 17.1771 117.339 17.1771C114.669 17.1771 113.451 15.9584 113.567 13.231C113.625 11.6641 113.567 10.0393 113.567 8.41441ZM124.535 6.03514C122.736 6.03514 121.169 6.03514 119.602 6.03514C119.602 7.95016 119.602 9.57503 119.602 11.2579C121.343 11.2579 122.852 11.2579 124.535 11.2579C124.535 9.517 124.535 7.89213 124.535 6.03514Z" fill="white"/>
<path d="M130.512 35.3408C130.512 37.0817 130.512 38.8227 130.512 40.5636C130.512 42.7107 129.409 43.8133 127.32 43.8714C123.722 43.9294 120.182 43.9294 116.584 43.8714C114.611 43.8133 113.567 42.7688 113.567 40.7377C113.567 37.1398 113.567 33.5999 113.567 30.002C113.567 27.9709 114.611 26.9263 116.584 26.8683C120.182 26.8102 123.722 26.7522 127.32 26.8683C129.525 26.9263 130.628 28.145 130.512 30.4082C130.454 32.033 130.512 33.6579 130.512 35.3408ZM124.593 32.8455C122.678 32.8455 121.111 32.8455 119.602 32.8455C119.602 34.7025 119.602 36.2693 119.602 37.7781C121.401 37.7781 122.968 37.7781 124.593 37.7781C124.593 36.0372 124.593 34.5284 124.593 32.8455Z" fill="white"/>
<path d="M152.854 36.6755C157.67 36.6755 162.487 36.6755 167.303 36.6755C169.276 36.6755 171.133 37.0236 171.133 39.519C171.133 41.9563 169.334 42.4786 167.361 42.4786C157.728 42.4786 148.037 42.4786 138.404 42.4786C136.373 42.4786 134.632 41.7822 134.69 39.4029C134.748 37.1977 136.431 36.6174 138.346 36.6174C143.22 36.6755 148.037 36.6755 152.854 36.6755Z" fill="white"/>
<path d="M152.854 15.6683C148.037 15.6683 143.221 15.6103 138.404 15.6683C136.431 15.6683 134.806 15.088 134.748 12.9409C134.69 10.6196 136.373 9.86523 138.462 9.86523C148.095 9.86523 157.786 9.86523 167.419 9.86523C169.451 9.86523 171.192 10.4455 171.192 12.8828C171.192 15.3782 169.393 15.7264 167.361 15.7264C162.487 15.6683 157.67 15.6683 152.854 15.6683Z" fill="white"/>
<path d="M157.728 7.31182C154.653 7.31182 151.519 7.31182 148.443 7.31182C146.412 7.31182 144.613 6.84757 144.555 4.41026C144.497 1.97296 146.238 1.45068 148.327 1.45068C154.711 1.45068 161.094 1.45068 167.478 1.45068C169.567 1.45068 171.25 1.97296 171.192 4.41026C171.134 6.9056 169.335 7.25378 167.304 7.25378C164.112 7.31182 160.92 7.31182 157.728 7.31182Z" fill="white"/>
<path d="M157.554 34.0062C154.362 34.0062 151.229 34.0062 148.037 34.0062C146.006 34.0062 144.555 33.1937 144.555 31.0466C144.555 28.8994 146.064 28.145 148.095 28.145C154.653 28.2031 161.21 28.145 167.71 28.145C169.741 28.145 171.191 28.8414 171.133 31.0466C171.133 33.2517 169.625 33.9481 167.652 33.9481C164.286 34.0062 160.92 34.0062 157.554 34.0062Z" fill="white"/>
<path d="M138.694 28.203C140.899 28.0289 142.64 28.8414 142.582 31.1046C142.524 33.5419 140.609 34.0641 138.462 34.0641C136.315 34.0641 134.69 33.2517 134.806 30.9885C134.922 28.6673 136.663 28.0289 138.694 28.203Z" fill="white"/>
<path d="M138.694 7.31182C136.663 7.36985 134.864 6.78954 134.806 4.4683C134.748 2.14706 136.373 1.50871 138.52 1.45068C140.667 1.45068 142.582 1.91493 142.582 4.41026C142.582 6.7315 140.783 7.36985 138.694 7.31182Z" fill="white"/>
</g>
<defs>
<clipPath id="clip0_228_17">
<rect width="176.298" height="130.918" fill="white"/>
</clipPath>
</defs>
</svg>
