<svg width="165" height="169" viewBox="0 0 165 169" fill="none" xmlns="http://www.w3.org/2000/svg">
<g clip-path="url(#clip0_236_119)">
<path d="M165 90.3579C163.265 90.4105 161.53 90.4631 159.742 90.5156C156.692 90.6208 155.641 91.6198 155.641 94.6694C155.588 97.1932 155.641 99.717 155.641 102.399C151.487 102.924 148.122 101.452 144.967 99.349C144.336 98.9283 143.705 98.4025 143.127 97.8767C141.602 96.5623 140.025 96.0891 138.5 97.719C136.87 99.5067 137.553 101.294 139.289 102.399C142.443 104.397 145.756 106.027 149.068 107.814C149.647 108.13 150.383 108.182 150.646 108.235C150.33 110.496 149.857 112.599 149.752 114.755C149.594 118.593 149.699 122.431 149.699 126.795C143.337 126.007 136.975 128.373 130.928 124.85C124.672 121.169 118.309 117.647 112.105 113.913C111.316 113.44 110.58 112.178 110.528 111.284C110.37 105.658 110.37 100.085 110.528 94.4591C110.528 93.6178 111.422 92.4611 112.21 92.093C115.628 90.5156 119.098 89.1486 122.621 87.8341C124.777 87.0454 125.303 85.6258 125.565 83.47C126.617 75.2151 124.566 68.1694 118.52 62.3331C116.785 60.6506 116.364 58.5474 116.417 56.1288C116.522 46.6645 116.417 37.2002 116.522 27.736C116.522 26.3689 117.048 24.7915 117.836 23.6873C121.569 18.2191 125.513 12.856 129.351 7.49292C148.648 14.4334 160.741 30.6278 161.687 50.7131C161.898 55.4978 160.636 59.9671 157.271 63.5425C155.588 65.3827 155.43 67.0127 156.535 69.221C159.479 75.3728 162.213 81.5772 165 87.7815C165 88.5702 165 89.4641 165 90.3579ZM146.65 63.5425C144.336 63.5425 142.443 63.4373 140.498 63.595C138.71 63.7528 137.553 64.8044 137.659 66.6972C137.764 68.4323 138.815 69.3788 140.603 69.3788C143.548 69.4313 146.545 69.4313 149.489 69.3788C151.382 69.3788 152.433 68.4323 152.486 66.4869C152.539 63.5425 152.539 60.5454 152.486 57.601C152.486 55.7607 151.54 54.5514 149.647 54.5514C147.596 54.5514 146.702 55.8659 146.597 57.7587C146.597 59.599 146.65 61.3867 146.65 63.5425ZM128.3 36.4115C128.3 32.2578 128.3 28.4195 128.3 24.6864C126.249 24.6864 124.514 24.6864 122.726 24.6864C122.726 28.6824 122.726 32.5207 122.726 36.4115C124.777 36.4115 126.564 36.4115 128.3 36.4115ZM128.51 42.6685C126.512 42.6685 124.619 42.6685 122.726 42.6685C122.726 44.6139 122.726 46.4016 122.726 48.2419C124.724 48.2419 126.512 48.2419 128.51 48.2419C128.51 46.4016 128.51 44.6665 128.51 42.6685ZM122.621 60.23C124.724 60.23 126.617 60.23 128.457 60.23C128.457 58.232 128.457 56.4968 128.457 54.7091C126.407 54.7091 124.566 54.7091 122.621 54.7091C122.621 56.6546 122.621 58.3371 122.621 60.23Z" fill="white"/>
<path d="M97.6985 33.4671C94.8066 35.8332 92.1776 37.989 89.6012 40.1973C87.0249 42.4056 86.9723 48.5574 89.5487 50.7657C90.8632 51.9225 92.2302 52.9741 93.5973 54.1308C94.9643 55.235 96.2788 56.3917 97.6985 57.5485C96.5943 59.4939 95.4901 61.3868 94.2808 63.5425C91.126 62.3858 88.0239 61.229 84.9743 60.0723C81.0834 58.6001 75.7729 61.7022 75.1419 65.856C74.879 67.486 74.5636 69.1159 74.2481 70.7459C73.9852 72.2707 73.6697 73.7955 73.3542 75.5832C71.4614 75.5832 69.6211 75.6883 67.8334 75.5306C67.255 75.478 66.4664 74.5842 66.3086 73.9532C65.6777 70.9562 65.3096 67.9066 64.6261 64.9622C64.3632 63.9106 63.5219 62.859 62.6806 62.1229C59.4207 59.3362 55.9505 59.0207 52.1122 61.1239C50.1668 62.1754 47.9059 62.7012 45.6449 63.5425C44.4882 61.5445 43.384 59.6516 42.2273 57.6011C44.9614 55.3401 47.5378 53.1844 50.1142 50.9761C52.9009 48.5574 52.9009 42.3531 50.1142 40.0396C47.9584 38.2519 45.8553 36.4116 43.5944 34.7291C42.4376 33.8352 42.385 33.0991 43.0686 31.8898C45.5398 27.4731 45.4872 27.4205 50.2719 29.2608C51.2709 29.6289 52.3225 29.8392 53.2164 30.4176C57.265 32.9939 60.3672 30.5227 63.4693 28.5247C64.1529 28.1041 64.4683 26.9473 64.6787 26.0535C65.257 23.2142 65.7828 20.3749 66.2035 17.5356C66.3612 16.116 66.887 15.5376 68.3066 15.5902C69.9366 15.6953 71.6191 15.5902 73.4068 15.5902C74.0378 19.0604 74.7213 22.3203 75.1419 25.5803C75.4048 27.4205 76.4564 28.3144 77.8235 29.4185C81.136 32.0475 84.2907 31.732 87.761 29.9969C89.759 28.9979 91.9673 28.4195 94.2808 27.5783C95.385 29.5237 96.4891 31.4166 97.6985 33.4671ZM70.0417 33.5197C63.4693 33.4671 57.9485 38.8828 57.8433 45.4027C57.7382 51.8699 63.3116 57.4433 69.8314 57.5485C76.3513 57.6011 81.9247 52.1328 81.9247 45.5604C81.9772 38.988 76.6142 33.5197 70.0417 33.5197Z" fill="white"/>
<path d="M36.6013 168.701C43.384 161.918 49.5884 155.609 55.9505 149.562C58.5269 147.144 59.5785 144.672 59.4733 141.097C59.263 129.372 59.3682 117.647 59.3682 105.869C59.3682 104.922 59.3682 103.976 59.3682 102.767C65.4148 102.767 71.3037 102.767 77.4554 102.767C77.508 103.66 77.5606 104.607 77.5606 105.553C77.5606 117.647 77.4554 129.74 77.6658 141.833C77.7183 145.251 76.9296 147.932 74.4058 150.193C73.512 150.982 72.8285 151.928 71.514 153.348C71.514 148.09 71.514 143.568 71.514 138.889C69.4634 138.889 67.6757 138.889 65.5199 138.889C65.5199 141.307 65.5199 143.726 65.5199 146.145C65.5199 147.985 65.5199 149.825 65.5199 151.665C65.5199 160.972 65.5199 161.024 59.0001 167.649C58.4743 168.175 57.5805 168.701 56.7918 168.701C50.3771 168.701 43.9098 168.701 36.6013 168.701ZM71.2511 120.538C71.2511 118.435 71.2511 116.595 71.2511 114.702C69.3056 114.702 67.5705 114.702 65.7303 114.702C65.7303 116.7 65.7303 118.54 65.7303 120.538C67.6231 120.538 69.3582 120.538 71.2511 120.538ZM71.3562 126.795C69.3582 126.795 67.518 126.795 65.7303 126.795C65.7303 128.741 65.7303 130.528 65.7303 132.316C67.6757 132.316 69.4634 132.316 71.3562 132.316C71.3562 130.423 71.3562 128.636 71.3562 126.795Z" fill="white"/>
<path d="M119.256 78.6329C115.523 78.6329 111.79 78.6329 107.846 78.6329C107.846 80.631 107.846 82.4186 107.846 84.4167C109.581 84.4167 111.369 84.4167 113.157 84.4167C113.209 84.5744 113.262 84.7847 113.314 84.9425C111.474 85.7311 109.634 86.5724 107.741 87.2034C105.375 87.9921 104.323 89.4117 104.586 91.9355C104.691 93.4077 104.586 94.8799 104.586 96.4573C93.492 96.4573 82.6607 96.4573 71.6716 96.4573C71.6716 91.4623 71.6716 86.625 71.6716 81.4722C72.7232 81.4722 73.6696 81.3671 74.6161 81.4722C77.5079 81.8403 78.8224 80.4206 79.1905 77.6865C79.6111 74.7421 80.0843 71.7976 80.5575 68.9058C81.0307 66.0139 82.1349 65.383 84.8165 66.382C87.6557 67.4335 90.5476 68.4851 93.3869 69.6419C95.5952 70.5357 97.1726 70.1677 98.5922 68.1171C99.118 67.381 100.275 66.6449 101.169 66.5923C105.007 66.4345 108.845 66.4345 112.736 66.5923C113.63 66.6449 114.787 67.1707 115.312 67.8542C117.521 70.9564 121.096 73.5853 119.256 78.6329ZM89.2857 84.4692C89.2857 82.4187 89.2857 80.631 89.2857 78.8433C87.2877 78.8433 85.5 78.8433 83.7123 78.8433C83.7123 80.8413 83.7123 82.629 83.7123 84.4692C85.6051 84.4692 87.3403 84.4692 89.2857 84.4692ZM95.7529 78.7381C95.7529 80.8413 95.7529 82.5764 95.7529 84.3641C97.6984 84.3641 99.4861 84.3641 101.274 84.3641C101.274 82.3661 101.274 80.5258 101.274 78.7381C99.3283 78.7381 97.5932 78.7381 95.7529 78.7381Z" fill="white"/>
<path d="M120.623 9.43846C117.573 13.75 114.629 17.3254 112.315 21.3214C110.738 24.1081 108.793 25.0019 105.848 24.5813C104.534 24.4236 103.219 24.4761 101.905 24.5813C100.275 24.6865 99.0655 24.371 98.3294 22.741C97.383 20.6378 95.5427 20.6379 93.6498 21.3214C90.7054 22.4255 87.7084 23.372 84.8691 24.6865C82.5556 25.738 80.8205 24.6339 80.505 22.1101C80.1895 19.2708 79.6112 16.4315 79.1905 13.5396C78.8225 11.0158 77.7709 9.17556 74.6687 9.43846C74.6687 6.49402 74.6687 3.65473 74.6687 0.657715C82.5556 0.657715 90.4425 0.657715 98.6449 0.657715C98.6449 2.28767 98.6449 3.86505 98.6449 5.44243C98.6974 8.70235 99.4336 9.49104 102.693 9.49104C108.425 9.43846 114.208 9.43846 120.623 9.43846Z" fill="white"/>
<path d="M41.3861 81.3144C41.3861 77.4235 41.3861 73.6904 41.3861 69.6943C43.3315 69.6943 45.1192 69.6943 47.3275 69.6943C47.3275 74.7419 47.4327 79.8947 47.275 84.9949C47.2224 87.0455 45.5398 87.6239 43.6996 87.6239C38.0736 87.6239 32.5002 87.6765 26.8742 87.6239C25.2968 87.6239 24.1926 87.9394 23.1411 89.3064C20.4595 92.7767 15.3593 92.987 12.2046 89.99C9.10239 86.9929 9.10239 82.1556 12.2046 79.1586C15.3067 76.1616 20.4595 76.3193 23.1411 79.8421C24.1926 81.2092 25.2968 81.5773 26.8742 81.5247C31.3434 81.4721 35.8127 81.4721 40.2819 81.4721C40.5448 81.4721 40.8077 81.4195 41.3861 81.3144Z" fill="white"/>
<path d="M20.4595 27.4732C25.6649 27.4732 30.4496 27.4732 35.392 27.4732C35.392 29.4713 35.392 31.259 35.392 33.5199C32.3424 33.5199 29.3454 33.5199 26.2958 33.5199C23.5091 33.5199 20.7224 33.5199 17.8831 33.5199C15.6748 33.5199 14.4655 32.4157 14.5181 30.1022C14.5181 26.3165 14.4655 22.5834 14.5181 18.7977C14.5706 17.2729 14.15 16.3264 12.8881 15.3274C9.20755 12.5407 8.89207 7.49311 11.9943 4.28578C15.0439 1.13102 20.0389 1.1836 22.9307 4.44351C25.9278 7.75601 25.402 12.5933 21.8266 15.5903C21.0905 16.2213 20.4595 17.3254 20.4069 18.2719C20.3544 21.1637 20.4595 24.1082 20.4595 27.4732Z" fill="white"/>
<path d="M41.386 45.981C41.386 47.7162 41.386 49.4513 41.386 51.3441C40.6499 51.3967 40.0189 51.5545 39.3354 51.5545C33.0259 51.7122 26.769 51.8173 20.4594 51.9225C17.6202 51.9751 15.0964 51.8174 12.7303 54.3937C9.94358 57.3908 4.84339 56.3392 2.37216 52.9741C-0.0990687 49.6616 0.531883 44.982 3.89696 42.4582C7.20946 39.987 12.0468 40.5128 14.3077 43.983C15.517 45.7707 16.7789 45.981 18.6192 45.9285C26.138 45.9285 33.6043 45.981 41.386 45.981Z" fill="white"/>
<path d="M83.5019 141.833C85.6051 141.833 87.3402 141.833 89.2856 141.833C89.2856 150.719 89.2856 159.552 89.2856 168.491C81.8194 168.491 74.3005 168.491 66.5188 168.491C66.9394 167.86 67.3075 167.334 67.6755 166.861C72.0396 161.866 76.3511 156.766 80.8729 151.876C82.871 149.72 83.9225 147.512 83.5545 144.62C83.4493 143.726 83.5019 142.78 83.5019 141.833Z" fill="white"/>
<path d="M118.362 168.596C110.317 168.596 103.114 168.596 95.7004 168.596C95.7004 159.71 95.7004 150.877 95.7004 141.938C97.5407 141.938 99.3284 141.938 101.484 141.938C101.484 143.41 101.642 144.883 101.432 146.302C100.853 150.351 102.431 153.243 105.428 155.924C109.792 159.763 113.788 164.022 118.362 168.596Z" fill="white"/>
<path d="M101.905 135.471C95.4374 135.471 89.6011 135.471 83.6597 135.471C83.6597 124.482 83.6597 113.703 83.6597 102.662C85.4999 102.662 87.2876 102.662 89.496 102.662C89.496 106.605 89.8114 110.549 89.4434 114.387C88.9176 119.645 90.3898 123.693 94.6487 126.953C96.8045 128.583 98.5922 130.686 100.432 132.684C101.011 133.368 101.274 134.367 101.905 135.471Z" fill="white"/>
<path d="M103.85 127.952C101.116 125.113 98.6449 122.589 96.2263 119.96C95.8582 119.54 95.5953 118.909 95.5953 118.33C95.5427 113.177 95.5427 108.025 95.5427 102.662C98.5397 102.662 101.326 102.662 104.534 102.662C104.534 105.238 104.639 107.814 104.481 110.391C104.271 114.071 104.323 117.542 109.213 118.803C107.426 122.011 105.743 124.798 103.85 127.952Z" fill="white"/>
<path d="M103.377 60.2827C105.007 55.8135 105.007 55.8135 101.169 52.6061C99.6964 51.3968 98.2767 50.1875 96.3313 48.6101C101.431 48.6101 105.796 48.6101 110.37 48.6101C110.37 52.5536 110.37 56.3393 110.37 60.3353C108.056 60.2827 105.848 60.2827 103.377 60.2827Z" fill="white"/>
<path d="M96.4365 42.353C98.3294 40.7756 99.8016 39.5663 101.221 38.357C104.954 35.2548 104.954 35.2548 103.377 30.6804C105.638 30.6804 107.846 30.6804 110.317 30.6804C110.317 34.5187 110.317 38.357 110.317 42.4056C105.901 42.353 101.484 42.353 96.4365 42.353Z" fill="white"/>
<path d="M70.0416 51.5018C66.7291 51.5544 63.995 48.9255 63.9424 45.613C63.8898 42.3005 66.5714 39.5138 69.8313 39.4612C72.9861 39.4086 75.9305 42.1953 75.9831 45.4026C76.0882 48.61 73.3015 51.4493 70.0416 51.5018Z" fill="white"/>
</g>
<defs>
<clipPath id="clip0_236_119">
<rect width="164.1" height="168.096" fill="white" transform="translate(0.899902 0.605225)"/>
</clipPath>
</defs>
</svg>
