<svg width="150" height="150" viewBox="0 0 150 150" fill="none" xmlns="http://www.w3.org/2000/svg">
<path d="M89.5651 100.164C85.6134 102.067 81.2225 104.116 76.8805 106.165C68.5379 110.117 60.1465 114.069 51.8527 118.069C50.3403 118.801 49.3646 118.85 48.0473 117.533C40.9244 110.263 33.7527 103.092 26.5322 95.9687C25.4589 94.8954 25.1174 94.1148 25.8492 92.6512C31.9964 79.869 37.9972 67.038 43.9492 54.4509C59.122 69.6725 74.3436 84.8941 89.5651 100.164Z" fill="white"/>
<path d="M124.107 0.492386C130.302 0.492386 136.45 0.443599 142.646 0.492386C147.622 0.541173 149.915 2.83417 149.964 7.81045C150.012 15.9579 150.012 24.0565 149.964 32.204C149.964 36.9363 147.476 39.4733 142.792 39.522C130.302 39.5708 117.764 39.5708 105.275 39.522C100.591 39.522 98.103 36.9363 98.103 32.204C98.0542 24.0078 98.0542 15.8115 98.103 7.56651C98.0542 2.93174 100.445 0.541173 105.128 0.541173C111.422 0.492386 117.764 0.492386 124.107 0.492386ZM114.105 20.1536C114.154 20.1536 114.203 20.1536 114.3 20.1536C114.3 21.7148 114.203 23.2272 114.3 24.7884C114.642 29.3743 119.081 32.1552 123.228 30.3501C126.546 28.8865 129.863 27.2765 133.035 25.4714C137.279 23.032 137.523 17.08 133.376 14.5919C130.107 12.6404 126.692 10.9328 123.18 9.518C119.277 7.90802 115.325 10.201 114.544 14.3967C114.154 16.2506 114.203 18.2509 114.105 20.1536Z" fill="white"/>
<path d="M110.251 102.165C110.982 102.555 111.763 102.897 112.495 103.384C114.69 104.75 116.886 104.067 117.325 101.531C117.813 98.7009 119.374 97.9203 121.911 98.0666C123.716 98.1642 125.472 98.0666 127.277 98.1154C128.936 98.1642 129.961 98.896 130.4 100.604C131.327 104.36 132.546 104.702 136.108 102.994C137.132 102.506 139.035 102.75 140.011 103.433C141.767 104.653 143.231 106.409 144.743 108.019C145.963 109.336 145.963 110.751 144.987 112.215C143.231 115.045 143.865 116.898 146.987 117.533C149.183 117.972 150.012 119.191 149.963 121.24C149.915 123.192 149.963 125.143 149.963 127.095C149.963 128.949 149.134 130.071 147.182 130.51C143.816 131.242 143.133 132.998 144.987 135.925C146.012 137.535 145.865 138.999 144.548 140.316C143.133 141.78 141.67 143.195 140.255 144.609C138.84 146.024 137.327 146.073 135.669 144.902C133.132 143.195 131.132 143.975 130.497 147C130.058 149.195 128.887 150.025 126.789 149.976C124.838 149.927 122.887 149.976 120.935 149.976C119.081 149.976 117.959 149.195 117.52 147.244C116.788 143.829 115.032 143.146 112.105 145C110.495 146.024 109.08 145.878 107.714 144.561C106.25 143.146 104.835 141.682 103.42 140.267C102.006 138.853 101.908 137.389 103.079 135.681C104.787 133.145 104.055 131.095 101.03 130.51C98.8345 130.071 97.9563 128.949 98.0051 126.851C98.0539 124.9 98.0051 122.948 98.0051 120.997C98.0051 119.143 98.7369 118.021 100.688 117.533C104.103 116.752 104.591 115.142 103.03 112.069C102.494 111.044 102.445 109.19 103.03 108.361C104.494 106.36 106.445 104.702 108.299 102.945C108.787 102.604 109.47 102.506 110.251 102.165ZM137.035 124.021C137.035 116.947 131.034 110.995 123.96 110.995C116.886 111.044 110.934 116.996 110.934 124.07C110.982 131.193 116.934 137.145 124.009 137.096C131.132 136.999 137.035 131.144 137.035 124.021Z" fill="white"/>
<path d="M52.2917 4.78564C52.2917 14.8358 52.3893 24.3493 52.2429 33.8627C52.1942 36.79 50.0475 39.2293 46.9251 39.2781C33.2648 39.4733 19.6532 39.522 5.99279 39.3269C2.52891 39.2293 0.528636 36.546 0.479849 33.0334C0.431062 24.1541 0.528636 15.3237 0.577423 6.44441C0.577423 6.05411 0.674998 5.66381 0.772572 5.02958C1.50438 5.46866 2.04104 5.76139 2.48012 6.1029C9.45667 11.3231 16.4332 16.4458 23.3122 21.7148C25.4588 23.3735 27.2152 23.4223 29.4106 21.7635C36.2896 16.4945 43.3149 11.3231 50.2427 6.1029C50.7793 5.76139 51.316 5.46866 52.2917 4.78564Z" fill="white"/>
<path d="M43.51 122.558C39.5583 126.802 35.7529 131.34 31.4108 135.34C27.9958 138.414 22.8243 137.926 19.4092 134.706C15.9941 131.486 12.6278 128.168 9.45666 124.705C6.2855 121.289 5.79763 116.069 8.87121 112.703C12.823 108.312 17.3114 104.458 21.4583 100.555C28.7763 107.873 36.3383 115.386 43.51 122.558Z" fill="white"/>
<path d="M6.8221 0.638916C19.8483 0.638916 32.9232 0.638916 46.3884 0.638916C45.6566 1.27315 45.2663 1.71223 44.7785 2.10253C39.1191 6.347 33.5086 10.5915 27.8005 14.7872C27.2151 15.2263 25.9954 15.4702 25.5563 15.1775C19.214 10.5427 12.9205 5.81035 6.62695 1.12679C6.67574 0.931638 6.72453 0.785277 6.8221 0.638916Z" fill="white"/>
<path d="M37.6067 138.95C40.6803 135.876 43.5587 132.998 46.4859 130.071C49.6083 133.096 52.8283 135.974 55.8043 139.194C58.0485 141.633 57.5606 145.536 55.17 147.781C52.877 149.976 49.0717 150.317 46.7299 148.171C43.5587 145.292 40.6803 142.072 37.6067 138.95Z" fill="white"/>
<path d="M65.2205 64.1596C73.9046 62.2081 81.6617 69.9164 80.0517 78.9908C75.173 74.1609 70.0992 69.0383 65.2205 64.1596Z" fill="white"/>
<path d="M96.2 51.2308C95.5658 52.4017 95.2731 53.3287 94.6388 54.0117C92.5898 56.2071 90.4919 58.3538 88.2965 60.4028C86.5402 62.0616 84.7351 62.1104 83.369 60.7931C81.9542 59.4271 82.1005 57.4268 83.8569 55.6705C85.9547 53.5238 88.0038 51.2796 90.2968 49.3769C91.1262 48.6939 92.7361 48.4012 93.8095 48.7427C94.7364 48.9866 95.3706 50.3039 96.2 51.2308Z" fill="white"/>
<path d="M75.2216 47.5229C75.2216 49.1329 75.2704 50.7916 75.2216 52.4016C75.124 54.4019 74.0019 55.6703 72.0017 55.6703C70.0014 55.6703 68.8305 54.4994 68.7817 52.4504C68.7329 49.1817 68.7329 45.9617 68.7817 42.693C68.8305 40.7903 69.855 39.6194 71.8065 39.5706C73.8556 39.473 75.0265 40.6439 75.1728 42.6442C75.3192 44.2542 75.1728 45.9129 75.2216 47.5229Z" fill="white"/>
<path d="M96.4441 75.2341C94.8341 75.2341 93.1753 75.2829 91.5654 75.2341C89.5651 75.1365 88.3454 74.112 88.2966 72.0629C88.2966 70.0139 89.4187 68.8918 91.4678 68.843C94.7365 68.7942 97.9565 68.7942 101.225 68.843C103.128 68.8918 104.299 69.9651 104.396 71.8678C104.494 73.8681 103.274 75.0877 101.323 75.2341C99.7128 75.3317 98.1028 75.2341 96.4441 75.2341Z" fill="white"/>
<path d="M129.717 19.9584C126.546 18.3972 123.814 17.0312 120.789 15.5188C120.789 18.6412 120.789 21.3245 120.789 24.2517C121.472 23.959 122.008 23.8126 122.496 23.5687C124.789 22.4466 127.082 21.2757 129.717 19.9584Z" fill="white"/>
<path d="M129.717 19.9585C127.082 21.2757 124.789 22.4466 122.496 23.6175C122.008 23.8614 121.472 24.0078 120.789 24.3005C120.789 21.3733 120.789 18.69 120.789 15.5676C123.814 17.0312 126.546 18.3973 129.717 19.9585Z" fill="white"/>
<path d="M124.009 130.461C120.301 130.461 117.569 127.68 117.569 123.972C117.569 120.265 120.398 117.532 124.106 117.581C127.717 117.63 130.4 120.313 130.449 123.924C130.449 127.68 127.717 130.461 124.009 130.461Z" fill="white"/>
</svg>
