<svg width="148" height="148" viewBox="0 0 148 148" fill="none" xmlns="http://www.w3.org/2000/svg">
<g clip-path="url(#clip0_236_147)">
<path d="M0.100098 27.2061C0.100098 20.8978 0.100098 14.5402 0.100098 8.23189C0.149381 3.1064 3.1064 0.149381 8.1826 0.100098C20.8485 0.100098 33.4651 0.100098 46.131 0.100098C51.4043 0.100098 54.312 3.05711 54.312 8.37974C54.312 20.947 54.312 33.5144 54.312 46.0817C54.312 51.355 51.355 54.312 46.0817 54.312C33.5144 54.312 20.947 54.312 8.37974 54.312C3.00783 54.312 0.100098 51.4043 0.100098 45.9338C0.100098 39.6748 0.100098 33.4651 0.100098 27.2061Z" fill="white"/>
<path d="M120.894 93.739C127.202 93.739 133.56 93.739 139.868 93.739C144.994 93.739 148 96.696 148 101.821C148.049 114.487 148 127.104 148 139.77C148 145.043 145.043 147.951 139.72 147.951C127.153 147.951 114.586 147.951 102.018 147.951C96.7451 147.951 93.7881 144.994 93.7881 139.721C93.7881 127.153 93.7881 114.586 93.7881 102.019C93.7881 96.5974 96.7451 93.739 102.216 93.6897C108.376 93.739 114.635 93.739 120.894 93.739Z" fill="white"/>
<path d="M29.7686 91.2748C44.7016 91.3241 56.776 103.497 56.776 118.43C56.776 133.462 44.5044 145.585 29.4729 145.487C14.5893 145.388 2.51483 133.166 2.56412 118.233C2.6134 103.349 14.8357 91.2255 29.7686 91.2748Z" fill="white"/>
<path d="M95.1187 27.4032C96.2522 25.4318 96.8929 23.4605 98.1742 22.1298C103.94 16.1665 109.805 10.3511 115.719 4.53561C119.021 1.28289 123.161 1.23361 126.463 4.48632C132.426 10.3511 138.34 16.2651 144.205 22.2284C147.162 25.2347 147.31 29.4238 144.402 32.4301C138.439 38.6398 132.328 44.7017 126.118 50.7143C123.013 53.6713 118.824 53.4742 115.768 50.4186C109.854 44.6031 103.99 38.7877 98.2235 32.7751C96.8436 31.3952 96.2029 29.3745 95.1187 27.4032Z" fill="white"/>
<path d="M79.8904 24.742C79.5947 24.052 79.1511 23.5592 79.2004 23.0663C79.299 22.1792 79.3975 20.8979 79.9889 20.5036C80.6789 20.06 82.256 19.9122 82.8474 20.405C84.8187 21.9821 86.7408 23.7563 88.2193 25.7769C88.7614 26.5655 88.4657 28.4875 87.825 29.4239C86.9379 30.8531 85.4101 31.8388 84.178 33.0216C82.9952 34.1058 81.6646 35.4858 80.1861 34.0566C79.3483 33.2187 79.3975 31.5431 78.9047 29.7196C74.5677 29.7196 69.3437 29.7196 64.1689 29.7196C63.3311 29.7196 62.3947 29.966 61.754 29.621C60.8176 29.0789 59.6348 28.2411 59.4377 27.3047C59.0927 25.8262 60.2755 24.8898 61.8033 24.7913C63.7746 24.6927 65.746 24.742 67.7173 24.742C71.66 24.742 75.652 24.742 79.8904 24.742Z" fill="white"/>
<path d="M27.206 65.6472C25.3825 66.6821 23.904 67.2242 22.7705 65.5486C21.5877 63.8237 22.7705 62.6409 23.904 61.5566C25.1361 60.3738 26.3682 59.1417 27.551 57.9097C28.9802 56.4804 30.4094 56.5297 31.7894 57.9589C33.0215 59.191 34.2043 60.4231 35.4364 61.6059C36.6192 62.7394 37.8512 64.1194 36.422 65.5486C35.5842 66.3864 33.8593 66.2879 32.0851 66.7314C32.0851 71.0684 32.0851 76.1446 32.0851 81.2701C32.0851 82.0093 32.0851 82.7486 32.0851 83.4878C32.0851 85.1142 31.3951 86.297 29.7195 86.3463C27.896 86.3956 27.1567 85.1635 27.1567 83.4385C27.206 77.5738 27.206 71.7583 27.206 65.6472Z" fill="white"/>
<path d="M118.381 76.4896C118.381 71.5613 118.381 65.9922 118.381 60.4232C118.381 58.649 118.627 56.924 120.796 56.8748C123.161 56.8255 123.358 58.649 123.358 60.5217C123.309 66.0908 123.358 71.6598 123.358 77.426C124.048 77.1303 124.541 76.6868 125.034 76.736C125.921 76.8346 127.153 76.9332 127.597 77.5246C128.09 78.116 128.237 79.6438 127.843 80.1366C126.069 82.2558 124.098 84.2271 121.929 85.9521C121.387 86.3956 119.711 85.9028 118.923 85.3607C117.543 84.375 116.459 82.995 115.227 81.763C114.044 80.5802 112.565 79.2002 114.093 77.6231C114.882 76.7853 116.607 76.8839 118.381 76.4896Z" fill="white"/>
</g>
<defs>
<clipPath id="clip0_236_147">
<rect width="147.9" height="147.9" fill="white" transform="translate(0.100098 0.100098)"/>
</clipPath>
</defs>
</svg>
