<svg width="159" height="166" viewBox="0 0 159 166" fill="none" xmlns="http://www.w3.org/2000/svg">
<g clip-path="url(#clip0_3_39)">
<path d="M118.086 147.8C116.879 147.93 116.275 147.628 115.715 146.547C114.292 143.91 112.697 141.359 111.188 138.722C109.463 135.696 107.782 132.67 106.057 129.687C105.756 129.125 105.368 128.607 104.592 128.65C103.988 128.304 103.341 128.477 102.695 128.477C94.6757 128.477 86.6567 128.434 78.6377 128.477C75.6629 128.477 76.1372 127.829 76.051 131.157C76.0078 132.022 76.2234 132.411 77.215 132.411C82.6472 132.368 88.0794 132.324 93.5116 132.324C96.1846 132.368 98.9007 132.454 101.574 132.368C102.781 132.324 103.384 132.757 103.945 133.794C106.014 137.469 108.17 141.057 110.283 144.688C110.929 145.855 111.49 147.109 112.223 148.189C112.956 149.27 112.999 150.005 112.05 151.086C109.679 153.809 109.334 157.008 110.627 160.337C111.835 163.449 114.378 165.049 117.439 166C118.517 166 119.595 166 120.673 166C122.699 165.265 124.682 164.487 126.062 162.714C128.433 159.602 128.864 156.273 127.183 152.729C125.415 149.27 122.052 147.411 118.086 147.8Z" fill="white"/>
<path d="M88.8986 115.768C89.3297 115.595 89.804 115.465 90.2351 115.249C108.472 105.998 115.456 83.5619 105.583 65.6218C101.746 58.6619 96.2709 53.4312 88.9417 50.2755C82.4748 47.1198 75.6199 46.3416 68.5494 47.4224C68.4631 47.4224 68.3338 47.3791 68.2476 47.4224C53.3305 50.4484 43.2421 59.1807 39.4051 73.9218C35.5681 88.5333 39.9224 101.07 51.3905 110.969C56.0466 114.946 61.4357 117.54 67.5578 118.448C74.93 119.874 82.0437 119.01 88.8986 115.768Z" fill="white"/>
<path d="M72.1277 127.656C72.1277 126.402 72.0846 125.192 72.1277 123.938C72.1708 123.203 71.9553 122.9 71.1361 122.857C65.1434 122.468 59.5819 120.652 54.3221 117.799C51.4336 116.07 48.7606 114.038 46.3031 111.704C42.1212 107.684 39.1464 102.885 36.8183 97.6113C36.7321 97.3087 36.6459 97.0061 36.5597 96.7035C34.1453 89.9165 33.5849 82.9567 34.8351 75.8238C35.6112 71.2416 37.3788 67.0483 39.4482 62.9848C43.8888 55.7655 49.8384 50.1889 57.5556 46.6009C61.91 44.6988 66.4799 43.4452 71.2223 43.1858C72.1277 43.1426 72.1277 42.6671 72.1277 42.0186C72.1277 31.341 72.1277 20.6634 72.1277 9.9426C72.1277 8.99155 71.8259 8.77541 70.9205 8.77541C68.2907 8.81864 65.6608 8.86187 62.9878 8.77541C61.9531 8.73218 61.6082 9.16447 61.3926 10.0723C60.3579 14.5249 59.237 18.9775 58.1592 23.4301C57.9436 24.3811 57.728 25.3322 56.9089 25.9806C53.4599 26.9749 50.1402 28.315 46.9929 30.0009C45.8289 30.6061 44.8373 30.6494 43.7164 29.8712C42.3368 28.9634 40.8709 28.1853 39.4482 27.3207C36.8183 25.678 34.1453 24.0785 31.5155 22.3926C30.7394 21.8738 30.2652 21.9603 29.6185 22.6087C24.445 27.8827 19.2283 33.0702 13.9685 38.2577C13.2356 38.9926 13.1494 39.5113 13.7099 40.4192C16.1673 44.353 18.4523 48.3733 20.9528 52.264C21.772 53.5608 21.8151 54.6848 21.0822 56.0249C20.3492 57.365 19.7888 58.8348 19.1421 60.2613C18.3661 61.5582 17.978 63.028 17.59 64.4546C17.1589 65.9676 16.2966 66.6593 14.8308 67.0051C10.3902 68.0426 5.94957 69.2098 1.50895 70.2473C0.388015 70.5499 0 70.8957 0 72.0629C0.0431128 79.3686 0.0431128 86.6311 0 93.9369C0 95.1041 0.388015 95.4499 1.46584 95.7093C5.90645 96.7468 10.3471 97.8707 14.7877 98.9514C16.1673 99.2973 17.0727 99.8593 17.5038 101.329C17.9349 102.799 18.3229 104.312 19.1421 105.695C19.7888 107.165 20.3924 108.678 21.1253 110.105C21.772 111.315 21.772 112.352 20.9959 113.563C18.4954 117.583 16.0811 121.647 13.6236 125.71C13.1925 126.402 13.0632 126.834 13.753 127.526C19.099 132.843 24.445 138.204 29.7478 143.521C30.2221 143.996 30.567 144.212 31.2568 143.78C32.9813 142.613 34.792 141.532 36.5597 140.408C38.8877 139.025 41.2589 137.685 43.587 136.215C44.8373 135.437 45.872 135.437 47.1654 136.085C49.4935 137.252 51.7785 138.506 54.3652 139.111C57.34 139.63 58.2023 141.748 58.7196 144.429C59.4525 148.276 60.6166 152.037 61.4789 155.884C61.7375 156.922 62.1687 157.268 63.2034 157.224C65.6608 157.138 68.1613 157.138 70.6188 157.224C71.9121 157.268 72.2139 156.879 72.2139 155.625C72.0846 146.287 72.1277 136.993 72.1277 127.656Z" fill="white"/>
<path d="M128.304 43.0131C127.873 43.4022 127.398 43.7912 126.967 44.1803C122.268 48.7626 117.525 53.3449 112.869 57.9704C112.223 58.6188 111.533 58.9214 110.584 58.8782C109.118 58.835 107.653 58.8782 105.885 58.8782C106.489 59.786 107.006 60.348 107.308 61.0397C107.954 62.4662 108.946 63.0282 110.498 62.8121C111.791 62.6391 113.214 63.0714 114.335 61.9907C119.121 57.2355 123.906 52.5235 128.735 47.8115C130.158 46.4714 131.58 45.2178 132.917 43.7912C133.65 43.0131 134.253 42.8834 135.288 43.186C139.384 44.3964 143.695 42.4944 145.721 38.6902C147.704 34.9725 146.885 30.4766 143.781 27.6235C140.72 24.8136 136.021 24.4678 132.572 26.8454C129.037 29.2662 127.355 33.8918 129.295 37.6527C130.502 40.0303 130.416 41.5433 128.304 43.0131Z" fill="white"/>
<path d="M134.986 122.857C134.426 123.03 133.951 123.246 133.391 122.684C132.054 121.301 130.589 120.004 129.209 118.664C124.38 113.909 119.552 109.154 114.723 104.398C113.688 103.404 109.938 102.712 108.644 103.318C108.472 103.404 108.299 103.577 108.17 103.75C107.48 104.787 106.79 105.868 105.971 107.122C107.092 107.122 107.954 107.208 108.817 107.122C111.102 106.776 112.697 107.727 114.292 109.326C118.991 114.082 123.863 118.664 128.649 123.289C128.821 123.506 128.95 123.722 129.166 123.895C130.459 124.846 130.675 125.667 129.726 127.267C127.829 130.509 128.088 133.967 130.373 136.993C132.615 140.019 135.762 141.273 139.47 140.495C144.73 139.414 147.791 134.399 146.497 129.255C145.204 124.284 140.117 121.431 134.986 122.857Z" fill="white"/>
<path d="M151.8 74.0514C147.877 73.1004 143.393 75.0025 141.841 78.8066C140.979 80.8384 139.944 81.3572 138.047 81.0546C137.961 81.0546 137.832 81.0978 137.745 81.0978C130.632 81.0978 123.561 81.0546 116.448 81.0546C113.818 81.0546 113.861 81.0546 113.861 83.7348C113.861 84.5994 114.033 84.9884 114.982 84.9884C122.57 84.9452 130.114 84.9452 137.702 84.902C139.772 84.6858 141.022 85.2046 142.014 87.4525C143.695 91.2566 148.179 92.8994 152.102 91.8186C156.198 90.6947 159.043 87.0202 158.957 82.9134C158.914 78.6337 156.025 75.0457 151.8 74.0514Z" fill="white"/>
<path d="M77.603 37.5661C86.0531 37.4797 94.5033 37.5229 102.953 37.5229C103.471 37.5229 104.031 37.6526 104.505 37.35C105.583 37.35 105.885 36.4422 106.316 35.7505C109.334 30.5198 112.395 25.3323 115.284 20.0583C116.103 18.5885 116.879 18.0698 118.603 18.1995C123.13 18.5453 127.053 15.3463 127.916 10.9802C128.778 6.57082 126.364 2.2479 122.139 0.605192C121.707 0.432275 121.147 0.518734 120.845 0.0432129C119.552 0.0432129 118.258 0.0432129 116.965 0.0432129C116.836 0.345817 116.534 0.302588 116.275 0.389046C109.679 2.68019 107.653 10.1156 112.223 15.3463C112.956 16.1677 112.74 16.6864 112.309 17.4213C109.55 22.2198 106.747 26.975 104.031 31.8167C103.341 33.0703 102.608 33.9349 101.1 33.6755C93.253 33.6323 85.3633 33.6755 77.5168 33.5458C75.663 33.5026 75.8785 34.4536 75.8785 35.6208C75.9216 36.8312 75.9216 37.6094 77.603 37.5661Z" fill="white"/>
</g>
<defs>
<clipPath id="clip0_3_39">
<rect width="159" height="166" fill="white"/>
</clipPath>
</defs>
</svg>
