<svg width="125" height="125" viewBox="0 0 125 125" fill="none" xmlns="http://www.w3.org/2000/svg">
<rect width="125" height="125" fill="#F5F5F5"/>
<g clip-path="url(#clip0_0_1)">
<rect width="1920" height="7040" transform="translate(-140 -1214)" fill="white"/>
<rect x="1" y="1" width="123" height="123" rx="16" fill="white" stroke="black" stroke-width="2"/>
<path d="M45.081 53.1271L33.064 63L45.081 72.8729C45.3267 73.0668 45.5307 73.3071 45.681 73.5797C45.8314 73.8522 45.9251 74.1516 45.9567 74.4603C45.9883 74.769 45.9571 75.0808 45.865 75.3775C45.7729 75.6742 45.6216 75.9497 45.4202 76.1881C45.2188 76.4265 44.9711 76.6229 44.6918 76.7657C44.4124 76.9086 44.1069 76.9951 43.7933 77.0202C43.4796 77.0453 43.164 77.0084 42.8649 76.9118C42.5659 76.8152 42.2894 76.6608 42.0516 76.4575L27.8513 64.7909C27.5849 64.5719 27.3705 64.2978 27.2234 63.9881C27.0763 63.6784 27 63.3406 27 62.9986C27 62.6566 27.0763 62.3188 27.2234 62.009C27.3705 61.6993 27.5849 61.4253 27.8513 61.2063L42.0516 49.5396C42.5341 49.1436 43.1565 48.9527 43.7818 49.0091C44.407 49.0654 44.984 49.3643 45.3857 49.8401C45.7874 50.3158 45.981 50.9294 45.9239 51.5458C45.8667 52.1623 45.5635 52.7311 45.081 53.1271ZM97.1487 61.2063L82.9484 49.5396C82.7095 49.3435 82.4337 49.1957 82.1369 49.1047C81.84 49.0137 81.5278 48.9812 81.2183 49.0091C80.9086 49.037 80.6077 49.1247 80.3324 49.2673C80.0572 49.4099 79.8132 49.6045 79.6143 49.8401C79.2126 50.3158 79.019 50.9294 79.0761 51.5458C79.1333 52.1623 79.4365 52.7311 79.919 53.1271L91.936 63L79.919 72.8729C79.6733 73.0668 79.4693 73.3071 79.319 73.5797C79.1686 73.8522 79.0749 74.1516 79.0433 74.4603C79.0117 74.769 79.0429 75.0808 79.135 75.3775C79.2271 75.6742 79.3784 75.9497 79.5798 76.1881C79.7812 76.4265 80.0289 76.6229 80.3083 76.7657C80.5876 76.9086 80.8931 76.9951 81.2067 77.0202C81.5204 77.0453 81.836 77.0084 82.1351 76.9118C82.4341 76.8152 82.7106 76.6608 82.9484 76.4575L97.1487 64.7909C97.4151 64.5719 97.6295 64.2978 97.7766 63.9881C97.9237 63.6784 98 63.3406 98 62.9986C98 62.6566 97.9237 62.3188 97.7766 62.009C97.6295 61.6993 97.4151 61.4253 97.1487 61.2063ZM72.7745 35.1401C72.4823 35.0355 72.1722 34.9887 71.8617 35.0023C71.5512 35.0159 71.2464 35.0897 70.9648 35.2194C70.6832 35.3492 70.4303 35.5323 70.2206 35.7584C70.0108 35.9845 69.8482 36.2491 69.7421 36.5372L50.8084 87.8704C50.7019 88.1586 50.6541 88.4647 50.6677 88.7712C50.6812 89.0776 50.756 89.3784 50.8876 89.6564C51.0192 89.9343 51.2051 90.1839 51.4347 90.391C51.6643 90.598 51.933 90.7584 52.2255 90.8629C52.4848 90.9538 52.758 91.0001 53.0331 91C53.5192 91 53.9934 90.8525 54.3915 90.5775C54.7895 90.3025 55.092 89.9133 55.2579 89.4629L74.1916 38.1297C74.2976 37.8416 74.3451 37.5358 74.3313 37.2297C74.3175 36.9236 74.2427 36.6231 74.1111 36.3455C73.9795 36.0679 73.7937 35.8186 73.5644 35.6117C73.3351 35.4049 73.0667 35.2446 72.7745 35.1401Z" fill="black"/>
</g>
<defs>
<clipPath id="clip0_0_1">
<rect width="1920" height="7040" fill="white" transform="translate(-140 -1214)"/>
</clipPath>
</defs>
</svg>
