<svg width="125" height="125" viewBox="0 0 125 125" fill="none" xmlns="http://www.w3.org/2000/svg">
<rect width="125" height="125" fill="#F5F5F5"/>
<g clip-path="url(#clip0_0_1)">
<rect width="1920" height="7040" transform="translate(-729 -1502)" fill="white"/>
<rect x="1" y="1" width="123" height="123" rx="16" fill="white" stroke="black" stroke-width="2"/>
<path d="M93.0769 37H48.7692C47.4635 37 46.2113 37.5268 45.2881 38.4645C44.3648 39.4021 43.8462 40.6739 43.8462 42V47H38.9231C37.6174 47 36.3652 47.5268 35.4419 48.4645C34.5187 49.4021 34 50.6739 34 52V87C34 88.3261 34.5187 89.5979 35.4419 90.5355C36.3652 91.4732 37.6174 92 38.9231 92H83.2308C84.5365 92 85.7887 91.4732 86.7119 90.5355C87.6352 89.5979 88.1538 88.3261 88.1538 87V82H93.0769C94.3826 82 95.6348 81.4732 96.5581 80.5355C97.4813 79.5979 98 78.3261 98 77V42C98 40.6739 97.4813 39.4021 96.5581 38.4645C95.6348 37.5268 94.3826 37 93.0769 37ZM83.2308 52V57H38.9231V52H83.2308ZM83.2308 87H38.9231V62H83.2308V87ZM93.0769 77H88.1538V52C88.1538 50.6739 87.6352 49.4021 86.7119 48.4645C85.7887 47.5268 84.5365 47 83.2308 47H48.7692V42H93.0769V77Z" fill="black"/>
</g>
<defs>
<clipPath id="clip0_0_1">
<rect width="1920" height="7040" fill="white" transform="translate(-729 -1502)"/>
</clipPath>
</defs>
</svg>
