<svg width="125" height="125" viewBox="0 0 125 125" fill="none" xmlns="http://www.w3.org/2000/svg">
<rect width="125" height="125" fill="#F5F5F5"/>
<g clip-path="url(#clip0_0_1)">
<rect width="1920" height="7040" transform="translate(-140 -1502)" fill="white"/>
<rect x="1" y="1" width="123" height="123" rx="16" fill="white" stroke="black" stroke-width="2"/>
<mask id="mask0_0_1" style="mask-type:alpha" maskUnits="userSpaceOnUse" x="24" y="40" width="77" height="45">
<rect x="24" y="40" width="77" height="45" fill="#D9D9D9"/>
</mask>
<g mask="url(#mask0_0_1)">
<path d="M28.9316 40H96.0559C97.2841 40 98.3932 40.4925 99.2016 41.2805C100.01 42.0746 100.505 43.1642 100.505 44.3708V79.7925C100.505 80.9991 100.004 82.0887 99.2016 82.8828C98.3995 83.6708 97.2841 84.1633 96.0559 84.1633H28.9316C27.7034 84.1633 26.5942 83.6708 25.7859 82.8828C24.9775 82.0887 24.4825 80.9991 24.4825 79.7925V44.3708C24.4825 43.1642 24.9838 42.0746 25.7859 41.2805C26.5942 40.4925 27.7096 40 28.9316 40ZM66.0279 62.1432L57.1486 56.0611V68.1761L66.0279 62.1432ZM56.2839 50.6684L70.6086 60.4872C70.8341 60.6227 71.0347 60.8073 71.1913 61.0351C71.818 61.9277 71.5924 63.1589 70.6838 63.7745L56.4092 73.4703C56.0645 73.7473 55.6196 73.9135 55.1371 73.9135C54.028 73.9135 53.1257 73.0271 53.1257 71.9374V52.2813H53.1319C53.1319 51.8934 53.251 51.4994 53.4954 51.1547C54.1283 50.2621 55.3815 50.0466 56.2839 50.6684ZM62.8384 87.6414C64.712 87.6414 66.4102 88.3925 67.6383 89.5991L67.6446 89.6052L67.6509 89.5991C68.4216 90.3562 69.0107 91.2981 69.3428 92.3446H98.9948C100.104 92.3446 101.006 93.2311 101.006 94.3207C101.006 95.4103 100.104 96.2968 98.9948 96.2968H69.3365C69.0044 97.3495 68.4216 98.2852 67.6446 99.0424C66.4164 100.249 64.712 101 62.8384 101C60.9585 101 59.2603 100.255 58.0321 99.0424C57.2614 98.2852 56.6724 97.3433 56.3403 96.2968H26.0115C24.9023 96.2968 24 95.4103 24 94.3207C24 93.2311 24.9023 92.3446 26.0115 92.3446H56.3403C56.6724 91.292 57.2551 90.3562 58.0321 89.5991C58.076 89.556 58.1199 89.519 58.1637 89.4821C59.3794 88.3432 61.0274 87.6414 62.8384 87.6414ZM64.806 92.3877C64.3047 91.8952 63.6091 91.5936 62.8384 91.5936C62.1052 91.5936 61.441 91.8645 60.946 92.3139L60.8708 92.3939C60.3695 92.8864 60.0562 93.5697 60.0562 94.3269C60.0562 95.0779 60.3695 95.7612 60.8708 96.2599C61.3721 96.7523 62.0676 97.0602 62.8384 97.0602C63.6029 97.0602 64.2984 96.7523 64.806 96.2599C65.276 95.7982 65.5767 95.1702 65.6143 94.4746C65.6081 94.4254 65.6081 94.3823 65.6081 94.333C65.6081 94.2838 65.6081 94.2345 65.6143 94.1914C65.5767 93.4835 65.276 92.8556 64.806 92.3877ZM96.0559 43.9522H28.9316C28.8188 43.9522 28.7122 44.0014 28.6308 44.0753C28.5556 44.1492 28.5055 44.2538 28.5055 44.3708V79.7925C28.5055 79.9033 28.5556 80.008 28.6308 80.088C28.706 80.1619 28.8125 80.2111 28.9316 80.2111H96.0559C96.1687 80.2111 96.2752 80.1619 96.3567 80.088C96.4319 80.0141 96.482 79.9095 96.482 79.7925V44.3708C96.482 44.26 96.4319 44.1553 96.3567 44.0753C96.2815 44.0014 96.175 43.9522 96.0559 43.9522Z" fill="black"/>
</g>
</g>
<defs>
<clipPath id="clip0_0_1">
<rect width="1920" height="7040" fill="white" transform="translate(-140 -1502)"/>
</clipPath>
</defs>
</svg>
