<svg width="125" height="125" viewBox="0 0 125 125" fill="none" xmlns="http://www.w3.org/2000/svg">
<rect width="125" height="125" fill="#F5F5F5"/>
<g clip-path="url(#clip0_0_1)">
<rect width="1920" height="7040" transform="translate(-1310 -1788)" fill="white"/>
<rect x="1" y="1" width="123" height="123" rx="16" fill="white" stroke="black" stroke-width="2"/>
<g clip-path="url(#clip1_0_1)">
<path d="M72.2409 89.1031C72.0369 90.1724 71.6787 91.1535 71.1605 92.052C70.6259 92.9725 69.9258 93.8048 69.066 94.5324C68.2006 95.26 67.2635 95.8112 66.2438 96.1805C65.2241 96.5498 64.1437 96.7317 63.0027 96.7317C61.8562 96.7317 60.7759 96.5443 59.7617 96.1805C58.7475 95.8112 57.8049 95.2655 56.945 94.5324C56.0797 93.7993 55.3851 92.9725 54.8505 92.052C54.3158 91.1315 53.952 90.1173 53.7536 89.0039C53.6544 88.4637 54.0182 87.9456 54.5583 87.8463C54.5749 87.8463 54.7347 87.8298 54.7347 87.8298H71.2818C71.833 87.8298 72.285 88.2763 72.285 88.833C72.2795 88.9267 72.2629 89.0149 72.2409 89.1031ZM42.1398 29.1379C43.1485 28.7355 44.2895 29.2316 44.6918 30.2403C45.0942 31.249 44.5981 32.39 43.5894 32.7923C41.4067 33.6632 39.5767 34.8704 38.116 36.4358C36.6608 38.0012 35.5639 39.9414 34.8474 42.273C34.5277 43.3093 33.4253 43.8935 32.389 43.5738C31.3528 43.2541 30.7685 42.1517 31.0882 41.1155C31.9866 38.1941 33.3757 35.7468 35.2332 33.7514C37.0908 31.7616 39.4003 30.2293 42.1398 29.1379ZM82.4105 32.7923C81.4018 32.39 80.9058 31.249 81.3081 30.2403C81.7105 29.2316 82.8515 28.7355 83.8602 29.1379C86.5997 30.2293 88.9092 31.7616 90.7668 33.7569C92.6243 35.7578 94.0188 38.2051 94.9118 41.121C95.2315 42.1573 94.6472 43.2597 93.611 43.5794C92.5747 43.8991 91.4723 43.3148 91.1526 42.2785C90.436 39.9414 89.3391 38.0012 87.884 36.4413C86.4233 34.8704 84.5933 33.6632 82.4105 32.7923ZM68.2722 34.8097C69.0825 35.0192 69.8707 35.2783 70.6369 35.5814C71.7613 36.0279 72.8417 36.5626 73.8779 37.1854C73.9165 37.213 73.9606 37.235 73.9992 37.2626C74.9914 37.8744 75.9174 38.5469 76.7662 39.2745C77.6592 40.0406 78.486 40.884 79.2577 41.81L79.2632 41.8155C80.0183 42.725 80.6908 43.7006 81.2861 44.7314C81.8814 45.7676 82.394 46.848 82.8184 47.9614C83.2539 49.1134 83.5791 50.2875 83.7996 51.4946C84.0145 52.7073 84.1248 53.9475 84.1248 55.2207C84.1248 57.7342 84.1248 59.0957 84.1248 59.261C84.1303 60.5508 84.1358 61.8131 84.1468 63.0423V63.0533C84.1523 64.1667 84.224 65.2857 84.3618 66.4046C84.4996 67.5125 84.698 68.5819 84.9571 69.6126C85.2162 70.6268 85.5689 71.6079 86.0044 72.545C86.4564 73.5096 87.0076 74.4577 87.6525 75.3782H87.658C88.2974 76.2821 89.0966 77.1806 90.0557 78.0625C91.0479 78.972 92.1944 79.8705 93.5062 80.7414C94.2559 81.243 94.4598 82.2627 93.9527 83.0123C93.6385 83.4808 93.1204 83.7399 92.5912 83.7399V83.7454H77.7915H63.0027H48.203H33.4087C32.4993 83.7454 31.7662 83.0123 31.7662 82.1028C31.7662 81.5075 32.0859 80.9839 32.5599 80.6973C33.8883 79.7988 35.0293 78.9059 35.9828 78.0239C36.9309 77.1475 37.7246 76.2491 38.364 75.323C38.3806 75.2955 38.4026 75.2679 38.4247 75.2459C39.042 74.3419 39.5712 73.4214 40.0066 72.4844C40.4531 71.5308 40.8114 70.5496 41.076 69.5409C41.0815 69.5189 41.087 69.4968 41.0925 69.4803C41.346 68.4992 41.539 67.4629 41.6712 66.377C41.8035 65.2857 41.8752 64.1557 41.8752 62.9927V55.2207C41.8752 53.9695 41.9854 52.7293 42.2114 51.4891C42.4374 50.2544 42.7626 49.0693 43.1981 47.9394C43.628 46.8094 44.1461 45.7235 44.747 44.6873C45.3423 43.6565 46.0257 42.6809 46.7919 41.7549L46.8029 41.7439C47.5636 40.8344 48.4014 39.9855 49.3109 39.2083C50.2094 38.4422 51.1795 37.7421 52.2212 37.1193C53.274 36.4909 54.3654 35.9618 55.4899 35.5318C56.2726 35.2342 57.0828 34.9861 57.9096 34.7822C58.1908 33.7955 58.6758 32.9963 59.3648 32.3845C60.3129 31.5411 61.5586 31.1222 63.1075 31.1387C64.6398 31.1498 65.88 31.5742 66.8171 32.4175C67.5005 33.0349 67.9911 33.8286 68.2722 34.8097ZM69.4463 38.6296C68.5368 38.2713 67.6108 37.9902 66.6682 37.7862C65.9406 37.6925 65.3454 37.1193 65.2516 36.3586C65.1635 35.6421 64.9595 35.1405 64.6343 34.8538C64.3091 34.5672 63.791 34.4184 63.0799 34.4129C62.3689 34.4074 61.8562 34.5452 61.5421 34.8263C61.2224 35.1129 61.0184 35.62 60.9357 36.3476C60.8586 37.0421 60.3349 37.6374 59.6073 37.7697C58.5876 37.9626 57.601 38.2382 56.6474 38.602C55.6938 38.9603 54.7843 39.4068 53.9024 39.9304C53.026 40.454 52.2047 41.0438 51.4441 41.6998C50.6834 42.3502 49.9723 43.0667 49.3219 43.8494C48.6825 44.6211 48.1093 45.4534 47.5967 46.3354C47.0951 47.2063 46.6541 48.1323 46.2793 49.1134C45.9045 50.089 45.6289 51.0812 45.447 52.0734C45.2651 53.071 45.1769 54.1238 45.1769 55.2262V62.9982C45.1769 64.288 45.0997 65.5447 44.9509 66.7794C44.8021 67.9645 44.5816 69.1441 44.2784 70.3071C44.2729 70.3347 44.2674 70.3567 44.2619 70.3843C43.9477 71.5694 43.5233 72.7324 42.9886 73.8789C42.4705 74.9868 41.8531 76.0617 41.1421 77.1034C41.12 77.1365 41.098 77.1696 41.076 77.2026C40.3263 78.283 39.3727 79.3578 38.2207 80.4272L38.1766 80.4658H48.2195H63.0193H77.797H87.8233C86.6989 79.4295 85.7508 78.3602 84.9791 77.2688V77.2633C84.224 76.1829 83.5791 75.075 83.0444 73.9395C82.4987 72.782 82.0798 71.6079 81.7767 70.4284V70.4229C81.479 69.2488 81.253 68.0417 81.1042 66.807C80.9609 65.6274 80.8837 64.3817 80.8782 63.0754V63.0698C80.8672 61.8517 80.8617 60.5839 80.8562 59.261C80.8451 56.8137 80.8451 55.4798 80.8451 55.2207C80.8451 54.1404 80.7569 53.0876 80.5695 52.0679C80.3876 51.0536 80.1175 50.0725 79.7593 49.1244V49.1189C79.39 48.1433 78.9545 47.2228 78.4584 46.3574C77.9623 45.492 77.3891 44.6707 76.7442 43.888C76.1048 43.1219 75.4048 42.4108 74.6441 41.7549C73.9055 41.121 73.1228 40.5533 72.3015 40.0406C72.2629 40.0241 72.2299 40.0021 72.1913 39.98C71.2983 39.4564 70.3833 39.0044 69.4463 38.6296Z" fill="black"/>
</g>
</g>
<defs>
<clipPath id="clip0_0_1">
<rect width="1920" height="7040" fill="white" transform="translate(-1310 -1788)"/>
</clipPath>
<clipPath id="clip1_0_1">
<rect width="64" height="67.7316" fill="white" transform="translate(31 29)"/>
</clipPath>
</defs>
</svg>
