<svg width="125" height="125" viewBox="0 0 125 125" fill="none" xmlns="http://www.w3.org/2000/svg">
<rect width="125" height="125" fill="#F5F5F5"/>
<g clip-path="url(#clip0_0_1)">
<rect width="1920" height="7040" transform="translate(-721 -1790)" fill="white"/>
<rect x="1" y="1" width="123" height="123" rx="16" fill="white" stroke="black" stroke-width="2"/>
<g clip-path="url(#clip1_0_1)">
<path d="M62 30C70.835 30 78.835 33.5825 84.6263 39.3737C90.4175 45.165 94 53.165 94 62C94 70.835 90.4175 78.835 84.6263 84.6263C78.835 90.4175 70.835 94 62 94C53.165 94 45.165 90.4175 39.3737 84.6263C33.5825 78.835 30 70.835 30 62C30 53.165 33.5825 45.165 39.3737 39.3737C45.165 33.5825 53.165 30 62 30ZM62 75.8363C60.2412 75.8363 58.8013 74.3925 58.8013 72.6375V65.1975H51.3625C49.6062 65.1975 48.1625 63.755 48.1625 61.9975C48.1625 60.2412 49.6025 58.7987 51.3625 58.7987H58.8013V51.36C58.8013 49.6038 60.2425 48.1612 62 48.1612C63.7575 48.1612 65.1987 49.6 65.1987 51.36V58.7987H72.6387C74.3975 58.7987 75.8387 60.2388 75.8387 61.9975C75.8387 63.7575 74.395 65.1975 72.6387 65.1975H65.1987V72.6375C65.1987 74.3963 63.7588 75.8363 62 75.8363ZM81.6087 42.3912C76.5912 37.3737 69.6575 34.27 62 34.27C54.3425 34.27 47.4087 37.3737 42.3912 42.3912C37.3737 47.4087 34.27 54.3425 34.27 62C34.27 69.6575 37.3737 76.5912 42.3912 81.6087C47.4087 86.6263 54.3425 89.73 62 89.73C69.6575 89.73 76.5912 86.6263 81.6087 81.6087C86.6263 76.5912 89.73 69.6575 89.73 62C89.73 54.3425 86.6263 47.4087 81.6087 42.3912Z" fill="black"/>
</g>
</g>
<defs>
<clipPath id="clip0_0_1">
<rect width="1920" height="7040" fill="white" transform="translate(-721 -1790)"/>
</clipPath>
<clipPath id="clip1_0_1">
<rect width="64" height="64" fill="white" transform="translate(30 30)"/>
</clipPath>
</defs>
</svg>
