<svg width="125" height="125" viewBox="0 0 125 125" fill="none" xmlns="http://www.w3.org/2000/svg">
<rect width="125" height="125" fill="#F5F5F5"/>
<g clip-path="url(#clip0_0_1)">
<rect width="1920" height="7040" transform="translate(-140 -1790)" fill="white"/>
<rect x="1" y="1" width="123" height="123" rx="16" fill="white" stroke="black" stroke-width="2"/>
<g clip-path="url(#clip1_0_1)">
<path d="M63 28C71.8363 28 79.8375 31.5825 85.6275 37.3725C91.4175 43.1638 95 51.1637 95 60C95 68.8363 91.4175 76.8375 85.6275 82.6275C79.8375 88.4175 71.8363 92 63 92C54.1637 92 46.1625 88.4175 40.3725 82.6275C34.5825 76.8375 31 68.8363 31 60C31 51.1637 34.5825 43.1638 40.3725 37.3725C46.1625 31.5825 54.1637 28 63 28ZM65.2188 70.7812H68.8625V74.4463H57.1388V70.7812H60.7337V59.2388H57.1388V55.5737H65.2188V70.7812ZM61.7262 51.985C60.8412 51.9788 60.0863 51.6688 59.4513 51.04C58.8162 50.4138 58.5063 49.6513 58.5063 48.7588C58.5063 47.8825 58.8162 47.1263 59.4513 46.4988C60.0863 45.8713 60.8412 45.555 61.7262 45.555C62.595 45.555 63.35 45.8713 63.9863 46.4988C64.6275 47.1263 64.945 47.8825 64.945 48.7588C64.945 49.3488 64.795 49.8925 64.5 50.3762C64.205 50.8675 63.8187 51.26 63.3363 51.5475C62.8525 51.835 62.315 51.9788 61.7262 51.985ZM83.2137 39.7863C78.0412 34.615 70.8937 31.415 63 31.415C55.1063 31.415 47.9587 34.615 42.7863 39.7863C37.615 44.96 34.415 52.1063 34.415 60C34.415 67.8937 37.615 75.0412 42.7863 80.2137C47.9587 85.385 55.1063 88.585 63 88.585C70.8937 88.585 78.0412 85.385 83.2137 80.2137C88.385 75.0412 91.585 67.8937 91.585 60C91.585 52.1063 88.385 44.96 83.2137 39.7863Z" fill="black"/>
</g>
</g>
<defs>
<clipPath id="clip0_0_1">
<rect width="1920" height="7040" fill="white" transform="translate(-140 -1790)"/>
</clipPath>
<clipPath id="clip1_0_1">
<rect width="64" height="64" fill="white" transform="translate(31 28)"/>
</clipPath>
</defs>
</svg>
