<svg width="125" height="125" viewBox="0 0 125 125" fill="none" xmlns="http://www.w3.org/2000/svg">
<rect width="125" height="125" fill="#F5F5F5"/>
<g clip-path="url(#clip0_0_1)">
<rect width="1920" height="7040" transform="translate(-1310 -1502)" fill="white"/>
<rect x="1" y="1" width="123" height="123" rx="16" fill="white" stroke="black" stroke-width="2"/>
<g clip-path="url(#clip1_0_1)">
<path fill-rule="evenodd" clip-rule="evenodd" d="M95 75.6439L94.9987 85.8534C95.0025 87.1965 93.8962 88.3012 92.545 88.3012H86.8937V73.1985L92.5487 73.201C93.8937 73.201 94.995 74.3057 95 75.6439ZM50.605 59.9832C50.8912 59.6649 51.2887 59.4664 51.7225 59.4664L74.2787 59.4677C74.72 59.4664 75.1187 59.6612 75.4025 59.9757C75.6775 60.2828 75.8475 60.7097 75.8475 61.1778C75.8475 61.6359 75.6712 62.0641 75.395 62.3711C75.11 62.6869 74.7137 62.8879 74.2787 62.8879H51.7225C51.2825 62.8879 50.8825 62.6932 50.6 62.3786C50.325 62.0728 50.1525 61.6471 50.1525 61.1778C50.1525 60.7184 50.3287 60.2915 50.605 59.9832ZM50.605 49.0896C50.8912 48.7713 51.2887 48.5729 51.7225 48.5729H63.1662C63.6087 48.5729 64.0062 48.7676 64.29 49.0821C64.5637 49.388 64.735 49.8124 64.735 50.283C64.735 50.7436 64.5587 51.1692 64.2825 51.4763C63.9975 51.7946 63.6012 51.9931 63.1662 51.9931H51.7225C51.28 51.9931 50.8825 51.7984 50.6 51.4826C50.325 51.178 50.1525 50.7498 50.1525 50.2817C50.1525 49.8211 50.3287 49.3967 50.605 49.0896ZM74.785 36.5259L85.95 46.9701H74.785V36.5259ZM92.1612 49.0197C92.1612 48.1709 91.5325 47.4057 90.8075 46.678L74.3587 30.6828C74.1861 30.4692 73.9676 30.297 73.7195 30.1788C73.4714 30.0607 73.1999 29.9996 72.925 30H44.2262C43.2975 30 42.4662 30.3745 41.8637 30.9761C41.26 31.5766 40.885 32.4091 40.885 33.3378V70.561L41.5787 70.1765C42.2841 69.7833 43.084 69.5912 43.8912 69.621L44.6175 69.6198V33.7111H71.05V48.8263C71.05 49.8536 71.8812 50.6986 72.925 50.6986H88.43V69.5187L92.1612 69.5212V49.0197ZM43.7312 88.3736C41.0587 86.9606 38.3762 85.5501 35.7 84.1383C30.1212 80.8291 29.2937 81.8452 34.3787 78.5211L43.735 73.3009L84.0325 73.201V88.2987L43.7312 88.3736ZM43.735 75.8798V85.796C41.9787 84.8648 40.2187 83.9373 38.4612 83.0111C34.3287 80.8291 33.6887 81.4945 37.5912 79.315L43.735 75.8798Z" fill="black"/>
</g>
</g>
<defs>
<clipPath id="clip0_0_1">
<rect width="1920" height="7040" fill="white" transform="translate(-1310 -1502)"/>
</clipPath>
<clipPath id="clip1_0_1">
<rect width="64" height="58.3736" fill="white" transform="translate(31 30)"/>
</clipPath>
</defs>
</svg>
