<svg width="125" height="125" viewBox="0 0 125 125" fill="none" xmlns="http://www.w3.org/2000/svg">
<rect width="125" height="125" fill="#F5F5F5"/>
<g clip-path="url(#clip0_0_1)">
<rect width="1920" height="7040" transform="translate(-729 -1214)" fill="white"/>
<rect x="1" y="1" width="123" height="123" rx="16" fill="white" stroke="#030303" stroke-width="2"/>
<g clip-path="url(#clip1_0_1)">
<path fill-rule="evenodd" clip-rule="evenodd" d="M88.9911 90.653C88.9911 91.5828 88.6116 92.4152 87.998 93.0201C87.3869 93.6238 86.543 94 85.6168 94H40.3895C39.4634 94 38.603 93.6238 37.9932 93.0201C37.3796 92.4152 37 91.5828 37 90.653V33.347C37 32.4159 37.3796 31.5835 37.9932 30.9786C38.603 30.3749 39.4456 30 40.3895 30H69.493C70.0712 30 70.6014 30.26 70.9468 30.6862L87.6285 46.7302C88.4218 46.9427 89 47.6776 89 48.5262C89 62.5693 88.9911 76.6036 88.9911 90.653ZM62.9658 60.7945C63.1936 59.8284 64.1728 59.2273 65.1521 59.451C66.1301 59.6759 66.7387 60.6433 66.5109 61.6107L62.5648 78.3009C62.3383 79.2683 61.359 79.8694 60.3798 79.6445C59.4018 79.4195 58.7932 78.4521 59.0209 77.486L62.9658 60.7945ZM71.6021 76.8748C70.8468 77.526 69.6993 77.451 69.0388 76.7049C68.3784 75.96 68.4556 74.8264 69.2096 74.174L74.5539 69.5483L69.2096 64.9227C68.4556 64.2703 68.3784 63.1367 69.0388 62.3906C69.6993 61.6457 70.8468 61.5694 71.6021 62.2218L78.4925 68.186C78.557 68.241 78.619 68.301 78.6772 68.3673C79.3363 69.1122 79.2604 70.2457 78.5051 70.8982L71.6021 76.8748ZM56.7904 74.174C57.5444 74.8264 57.6216 75.96 56.9612 76.7049C56.3007 77.451 55.1532 77.526 54.3979 76.8748L47.4949 70.8982C46.7396 70.2457 46.6636 69.1122 47.3241 68.3673C47.381 68.301 47.443 68.241 47.5075 68.186L54.3979 62.2218C55.1532 61.5694 56.3007 61.6457 56.9612 62.3906C57.6216 63.1367 57.5444 64.2703 56.7904 64.9227L51.4461 69.5483L56.7904 74.174ZM85.2145 50.7647H69.493C68.4353 50.7647 67.5914 49.9148 67.5914 48.8862V33.722H40.7868V90.2605H85.2196C85.2196 77.0911 85.2145 63.9329 85.2145 50.7647ZM71.3782 36.5479L82.7018 47.0239H71.3782V36.5479Z" fill="black"/>
</g>
</g>
<defs>
<clipPath id="clip0_0_1">
<rect width="1920" height="7040" fill="white" transform="translate(-729 -1214)"/>
</clipPath>
<clipPath id="clip1_0_1">
<rect width="52" height="64" fill="white" transform="translate(37 30)"/>
</clipPath>
</defs>
</svg>
