<svg width="89" height="66" viewBox="0 0 89 66" fill="currentColor" xmlns="http://www.w3.org/2000/svg">
<g id="undraw_code 1" clip-path="url(#clip0_31_5057)">
<path id="Vector" d="M18.4249 14.1437C12.6511 20.3687 6.87734 26.5936 1.10359 32.8186C-1.01041 35.0978 0.108034 38.2057 2.80334 39.2655C9.92233 42.0648 16.359 46.4326 21.7374 51.8563C25.2358 55.3842 30.6838 49.9297 27.1849 46.4014C20.8241 39.9869 13.2394 35.1249 4.85136 31.8266L6.55111 38.2735C12.3249 32.0486 18.0986 25.8236 23.8724 19.5987C27.2431 15.9646 21.8076 10.4966 18.4249 14.1437Z" fill="#00b9bc"/>
<path id="Vector_2" d="M65.1277 19.5987C70.9014 25.8237 76.6752 32.0486 82.449 38.2736C83.0156 36.1246 83.5821 33.9756 84.1487 31.8266C75.7607 35.1249 68.1759 39.987 61.8151 46.4014C58.3178 49.9282 63.7628 55.3857 67.2627 51.8564C72.6412 46.4325 79.0776 42.0649 86.1967 39.2656C88.8921 38.2057 90.0105 35.0978 87.8965 32.8186C82.1227 26.5937 76.349 20.3687 70.5752 14.1438C67.1939 10.4982 61.7555 15.963 65.1277 19.5987Z" fill="#00b9bc"/>
<path id="Vector_3" d="M38.0431 63.1617C45.6169 43.7375 53.1906 24.3133 60.7644 4.88908C61.5213 2.94799 59.9322 0.655496 58.074 0.144211C55.8924 -0.456053 54.0953 0.890078 53.3356 2.83826C45.7619 22.2625 38.1881 41.6867 30.6143 61.1109C29.8575 63.052 31.4465 65.3445 33.3047 65.8558C35.4863 66.4561 37.2835 65.1099 38.0431 63.1617Z" fill="#00b9bc"/>
</g>
<defs>
<clipPath id="clip0_31_5057">
<rect width="89" height="66" fill="currentColor"/>
</clipPath>
</defs>
</svg>
